<?xml version="1.0" encoding="UTF-8"?>
<svg id="_レイヤー_2" data-name="レイヤー 2" xmlns="http://www.w3.org/2000/svg" xmlns:xlink="http://www.w3.org/1999/xlink" viewBox="0 0 514 639.87">
  <defs>
    <style>
      .cls-1 {
        clip-path: url(#clippath-45);
      }

      .cls-2 {
        clip-path: url(#clippath-20);
      }

      .cls-3 {
        clip-path: url(#clippath-11);
      }

      .cls-4 {
        clip-path: url(#clippath-16);
      }

      .cls-5 {
        clip-path: url(#clippath-59);
      }

      .cls-6 {
        clip-path: url(#clippath-33);
      }

      .cls-7 {
        clip-path: url(#clippath-47);
      }

      .cls-8 {
        opacity: .5;
      }

      .cls-9 {
        opacity: .3;
      }

      .cls-10 {
        clip-path: url(#clippath-41);
      }

      .cls-11 {
        clip-path: url(#clippath-32);
      }

      .cls-12 {
        opacity: .6;
      }

      .cls-13 {
        fill: #e6e6e6;
      }

      .cls-13, .cls-14, .cls-15, .cls-16, .cls-17, .cls-18, .cls-19, .cls-20, .cls-21, .cls-22 {
        stroke-width: 0px;
      }

      .cls-23 {
        clip-path: url(#clippath-2);
      }

      .cls-24 {
        clip-path: url(#clippath-13);
      }

      .cls-25 {
        clip-path: url(#clippath-37);
      }

      .cls-26 {
        clip-path: url(#clippath-46);
      }

      .cls-27 {
        clip-path: url(#clippath-25);
      }

      .cls-28 {
        fill: #4d4d4d;
        font-family: AB-tsubaki-90ms-RKSJ-H, AB-tsubaki;
        font-size: 32.6px;
      }

      .cls-29 {
        clip-path: url(#clippath-15);
      }

      .cls-30 {
        clip-path: url(#clippath-6);
      }

      .cls-31 {
        clip-path: url(#clippath-40);
      }

      .cls-32 {
        clip-path: url(#clippath-26);
      }

      .cls-15 {
        fill: #754c24;
      }

      .cls-16 {
        fill: none;
      }

      .cls-33 {
        clip-path: url(#clippath-7);
      }

      .cls-34 {
        clip-path: url(#clippath-21);
      }

      .cls-35 {
        clip-path: url(#clippath-34);
      }

      .cls-36 {
        clip-path: url(#clippath-57);
      }

      .cls-37 {
        clip-path: url(#clippath-1);
      }

      .cls-38 {
        clip-path: url(#clippath-4);
      }

      .cls-39 {
        clip-path: url(#clippath-38);
      }

      .cls-40 {
        clip-path: url(#clippath-36);
      }

      .cls-41 {
        clip-path: url(#clippath-27);
      }

      .cls-42 {
        clip-path: url(#clippath-60);
      }

      .cls-43 {
        clip-path: url(#clippath-44);
      }

      .cls-44 {
        clip-path: url(#clippath-12);
      }

      .cls-17 {
        fill: #fff;
      }

      .cls-45 {
        clip-path: url(#clippath-24);
      }

      .cls-46 {
        clip-path: url(#clippath-30);
      }

      .cls-47 {
        clip-path: url(#clippath-22);
      }

      .cls-48 {
        clip-path: url(#clippath-9);
      }

      .cls-49 {
        clip-path: url(#clippath-52);
      }

      .cls-50 {
        clip-path: url(#clippath);
      }

      .cls-51 {
        clip-path: url(#clippath-50);
      }

      .cls-52 {
        clip-path: url(#clippath-48);
      }

      .cls-53 {
        clip-path: url(#clippath-61);
      }

      .cls-54 {
        clip-path: url(#clippath-39);
      }

      .cls-18 {
        fill: #bddad6;
      }

      .cls-55 {
        clip-path: url(#clippath-19);
      }

      .cls-56 {
        clip-path: url(#clippath-31);
      }

      .cls-57 {
        font-family: ZenMaruGothic-Regular, 'Zen Maru Gothic';
        font-size: 17.72px;
      }

      .cls-19 {
        fill: #42210b;
      }

      .cls-58 {
        clip-path: url(#clippath-54);
      }

      .cls-59 {
        clip-path: url(#clippath-3);
      }

      .cls-20 {
        fill: #736357;
      }

      .cls-60 {
        letter-spacing: -.5em;
      }

      .cls-21 {
        fill: #fedcbd;
      }

      .cls-61 {
        clip-path: url(#clippath-43);
      }

      .cls-22 {
        fill: #534741;
      }

      .cls-62 {
        clip-path: url(#clippath-8);
      }

      .cls-63 {
        clip-path: url(#clippath-55);
      }

      .cls-64 {
        clip-path: url(#clippath-29);
      }

      .cls-65 {
        clip-path: url(#clippath-18);
      }

      .cls-66 {
        clip-path: url(#clippath-14);
      }

      .cls-67 {
        clip-path: url(#clippath-17);
      }

      .cls-68 {
        clip-path: url(#clippath-5);
      }

      .cls-69 {
        clip-path: url(#clippath-58);
      }

      .cls-70 {
        clip-path: url(#clippath-42);
      }

      .cls-71 {
        letter-spacing: .25em;
      }

      .cls-72 {
        clip-path: url(#clippath-10);
      }

      .cls-73 {
        clip-path: url(#clippath-23);
      }

      .cls-74 {
        clip-path: url(#clippath-56);
      }

      .cls-75 {
        clip-path: url(#clippath-53);
      }

      .cls-76 {
        clip-path: url(#clippath-49);
      }

      .cls-77 {
        clip-path: url(#clippath-51);
      }

      .cls-78 {
        clip-path: url(#clippath-28);
      }

      .cls-79 {
        clip-path: url(#clippath-35);
      }
    </style>
    <clipPath id="clippath">
      <rect class="cls-16" x="63.5" y="112.87" width="387" height="217.58"/>
    </clipPath>
    <clipPath id="clippath-1">
      <rect class="cls-16" x="63.5" y="112.87" width="387" height="217.58"/>
    </clipPath>
    <clipPath id="clippath-2">
      <rect class="cls-16" x="63.5" y="112.87" width="387" height="217.58"/>
    </clipPath>
    <clipPath id="clippath-3">
      <rect class="cls-16" x="201.78" y="172.96" width="118.55" height="148.33"/>
    </clipPath>
    <clipPath id="clippath-4">
      <rect class="cls-16" x="306.62" y="242.85" width="21.26" height="21.26"/>
    </clipPath>
    <clipPath id="clippath-5">
      <rect class="cls-16" x="196.11" y="247.89" width="21.26" height="21.26"/>
    </clipPath>
    <clipPath id="clippath-6">
      <rect class="cls-16" x="258.09" y="137.57" width="78.85" height="85.59"/>
    </clipPath>
    <clipPath id="clippath-7">
      <rect class="cls-16" x="275.83" y="145.66" width="67.08" height="69.75"/>
    </clipPath>
    <clipPath id="clippath-8">
      <rect class="cls-16" x="281" y="135.21" width="78.16" height="86.1"/>
    </clipPath>
    <clipPath id="clippath-9">
      <rect class="cls-16" x="187.96" y="130.58" width="86.37" height="93.85"/>
    </clipPath>
    <clipPath id="clippath-10">
      <rect class="cls-16" x="209.95" y="145.5" width="60.61" height="70.18"/>
    </clipPath>
    <clipPath id="clippath-11">
      <rect class="cls-16" x="186.96" y="131.96" width="73.96" height="84.93"/>
    </clipPath>
    <clipPath id="clippath-12">
      <rect class="cls-16" x="173.97" y="127.42" width="86.23" height="97.87"/>
    </clipPath>
    <clipPath id="clippath-13">
      <rect class="cls-16" x="250.83" y="125.5" width="39.97" height="39.97"/>
    </clipPath>
    <clipPath id="clippath-14">
      <rect class="cls-16" x="203.58" y="179.22" width="40.67" height="39.95"/>
    </clipPath>
    <clipPath id="clippath-15">
      <rect class="cls-16" x="263.27" y="135.28" width="60.33" height="65.57"/>
    </clipPath>
    <clipPath id="clippath-16">
      <rect class="cls-16" x="275.05" y="209.83" width="28.49" height="6.61"/>
    </clipPath>
    <clipPath id="clippath-17">
      <rect class="cls-16" x="217.95" y="207.38" width="33.75" height="10.44"/>
    </clipPath>
    <clipPath id="clippath-18">
      <rect class="cls-16" x="313.08" y="218.81" width="4.4" height="5.23"/>
    </clipPath>
    <clipPath id="clippath-19">
      <rect class="cls-16" x="315.37" y="225.58" width="2.81" height="6.56"/>
    </clipPath>
    <clipPath id="clippath-20">
      <rect class="cls-16" x="315.41" y="225.93" width="2.09" height="5.08"/>
    </clipPath>
    <clipPath id="clippath-21">
      <rect class="cls-16" x="314.61" y="229.23" width="2.82" height="9.13"/>
    </clipPath>
    <clipPath id="clippath-22">
      <rect class="cls-16" x="313.86" y="234.02" width="2.08" height="4.98"/>
    </clipPath>
    <clipPath id="clippath-23">
      <rect class="cls-16" x="313.29" y="237.23" width="2.11" height="3.7"/>
    </clipPath>
    <clipPath id="clippath-24">
      <rect class="cls-16" x="268.82" y="225.12" width="3.18" height="5.46"/>
    </clipPath>
    <clipPath id="clippath-25">
      <rect class="cls-16" x="271.31" y="230.37" width="2.79" height="6.27"/>
    </clipPath>
    <clipPath id="clippath-26">
      <rect class="cls-16" x="271.72" y="235.72" width="3.89" height="7.93"/>
    </clipPath>
    <clipPath id="clippath-27">
      <rect class="cls-16" x="273.91" y="242.2" width="3.57" height="5.81"/>
    </clipPath>
    <clipPath id="clippath-28">
      <rect class="cls-16" x="278.79" y="247.89" width="4.01" height="3.44"/>
    </clipPath>
    <clipPath id="clippath-29">
      <rect class="cls-16" x="281.73" y="249.42" width="3.05" height="2.78"/>
    </clipPath>
    <clipPath id="clippath-30">
      <rect class="cls-16" x="284.32" y="249.63" width="2.1" height="2.1"/>
    </clipPath>
    <clipPath id="clippath-31">
      <rect class="cls-16" x="284.89" y="250.19" width="7.6" height="4.14"/>
    </clipPath>
    <clipPath id="clippath-32">
      <rect class="cls-16" x="295.43" y="250.84" width="4.71" height="3.3"/>
    </clipPath>
    <clipPath id="clippath-33">
      <rect class="cls-16" x="299.82" y="250.45" width="10.1" height="4.09"/>
    </clipPath>
    <clipPath id="clippath-34">
      <rect class="cls-16" x="309.86" y="245.99" width="2.91" height="4.87"/>
    </clipPath>
    <clipPath id="clippath-35">
      <rect class="cls-16" x="259.79" y="225.24" width="3.89" height="4.79"/>
    </clipPath>
    <clipPath id="clippath-36">
      <rect class="cls-16" x="259.44" y="230.51" width="3.17" height="5.19"/>
    </clipPath>
    <clipPath id="clippath-37">
      <rect class="cls-16" x="257.8" y="235.87" width="2.75" height="4.47"/>
    </clipPath>
    <clipPath id="clippath-38">
      <rect class="cls-16" x="256.63" y="237.48" width="4.04" height="5.91"/>
    </clipPath>
    <clipPath id="clippath-39">
      <rect class="cls-16" x="255.57" y="241.51" width="3.45" height="4.21"/>
    </clipPath>
    <clipPath id="clippath-40">
      <rect class="cls-16" x="256.73" y="243.47" width="2.39" height="3.35"/>
    </clipPath>
    <clipPath id="clippath-41">
      <rect class="cls-16" x="256.41" y="242.72" width="2.42" height="4.13"/>
    </clipPath>
    <clipPath id="clippath-42">
      <rect class="cls-16" x="254.9" y="245.39" width="3.02" height="4.59"/>
    </clipPath>
    <clipPath id="clippath-43">
      <rect class="cls-16" x="250.07" y="246.83" width="7.09" height="6.41"/>
    </clipPath>
    <clipPath id="clippath-44">
      <rect class="cls-16" x="248.05" y="250.5" width="6.13" height="3.06"/>
    </clipPath>
    <clipPath id="clippath-45">
      <rect class="cls-16" x="243.24" y="250.71" width="8.57" height="3.71"/>
    </clipPath>
    <clipPath id="clippath-46">
      <rect class="cls-16" x="243.2" y="251.1" width="3.76" height="2.19"/>
    </clipPath>
    <clipPath id="clippath-47">
      <rect class="cls-16" x="241.05" y="251.33" width="6.01" height="2.25"/>
    </clipPath>
    <clipPath id="clippath-48">
      <rect class="cls-16" x="236.65" y="251.55" width="3.3" height="1.79"/>
    </clipPath>
    <clipPath id="clippath-49">
      <rect class="cls-16" x="235.6" y="251.3" width="6.01" height="2.7"/>
    </clipPath>
    <clipPath id="clippath-50">
      <rect class="cls-16" x="212" y="221.95" width="2.78" height="5.46"/>
    </clipPath>
    <clipPath id="clippath-51">
      <rect class="cls-16" x="211.71" y="225.4" width="2.98" height="5.82"/>
    </clipPath>
    <clipPath id="clippath-52">
      <rect class="cls-16" x="213.21" y="229.15" width="1.7" height="1.94"/>
    </clipPath>
    <clipPath id="clippath-53">
      <rect class="cls-16" x="212.92" y="226.75" width="1.64" height="1.7"/>
    </clipPath>
    <clipPath id="clippath-54">
      <rect class="cls-16" x="213.2" y="231.29" width="2.97" height="5.4"/>
    </clipPath>
    <clipPath id="clippath-55">
      <rect class="cls-16" x="214.6" y="233.55" width="1.64" height="1.7"/>
    </clipPath>
    <clipPath id="clippath-56">
      <rect class="cls-16" x="213.9" y="232.91" width="2.48" height="4.73"/>
    </clipPath>
    <clipPath id="clippath-57">
      <rect class="cls-16" x="214.57" y="236.67" width="4.91" height="6.03"/>
    </clipPath>
    <clipPath id="clippath-58">
      <rect class="cls-16" x="216.6" y="238.9" width="4.65" height="9.51"/>
    </clipPath>
    <clipPath id="clippath-59">
      <rect class="cls-16" x="218.56" y="243.79" width="8.11" height="8.44"/>
    </clipPath>
    <clipPath id="clippath-60">
      <rect class="cls-16" x="227.13" y="249.31" width="3.66" height="3.88"/>
    </clipPath>
    <clipPath id="clippath-61">
      <rect class="cls-16" x="223.48" y="246.78" width="10.2" height="6.59"/>
    </clipPath>
  </defs>
  <g id="_レイヤー_1-2" data-name="レイヤー 1">
    <g>
      <circle class="cls-13" cx="263.5" cy="226.87" r="173"/>
      <path class="cls-18" d="m263.5,67.87c42.47,0,82.4,16.54,112.43,46.57,30.03,30.03,46.57,69.96,46.57,112.43s-16.54,82.4-46.57,112.43c-30.03,30.03-69.96,46.57-112.43,46.57s-82.4-16.54-112.43-46.57c-30.03-30.03-46.57-69.96-46.57-112.43s16.54-82.4,46.57-112.43c30.03-30.03,69.96-46.57,112.43-46.57m0-28c-103.28,0-187,83.72-187,187s83.72,187,187,187,187-83.72,187-187S366.78,39.87,263.5,39.87h0Z"/>
    </g>
    <text class="cls-28" transform="translate(267 34.11) rotate(4.9)"><tspan x="0" y="0">イ</tspan></text>
    <text class="cls-28" transform="translate(292.33 35.8) rotate(12.61)"><tspan x="0" y="0">ン</tspan></text>
    <text class="cls-28" transform="translate(319.02 41.37) rotate(20.84)"><tspan x="0" y="0">タ</tspan></text>
    <text class="cls-28" transform="translate(341.73 49.43) rotate(28.23)"><tspan x="0" y="0">ビ</tspan></text>
    <text class="cls-28" transform="translate(365.41 61.66) rotate(36.43)"><tspan x="0" y="0">ュ</tspan></text>
    <text class="cls-28" transform="translate(385.12 75.53) rotate(43.82)"><tspan x="0" y="0">ー</tspan></text>
    <text class="cls-28" transform="translate(403.75 92.73) rotate(51.56)"><tspan x="0" y="0">す</tspan></text>
    <text class="cls-28" transform="translate(418.42 110.25) rotate(58.5)"><tspan x="0" y="0">る</tspan></text>
    <text class="cls-28" transform="translate(430.85 129.4) rotate(65.43)"><tspan x="0" y="0">人</tspan></text>
    <g class="cls-50">
      <g class="cls-37">
        <g class="cls-23">
          <path class="cls-22" d="m208.77,224.35s.06,0,.1,0c-.19-.03-.38-.05-.56-.08.06,0,.13.03.18.05-.17-.07-.34-.14-.51-.21.29.15-.32-.31-.15-.13.15.15-.3-.47-.13-.15l-.21-.51c.08.19.13.38.16.59-.03-.19-.05-.38-.08-.56.1.89.17,1.78.29,2.67.12.9.29,1.78.43,2.68-.03-.19-.05-.38-.08-.56.04.31.06.62.03.93.03-.19.05-.38.08-.56-.11.83-.28,1.62.17,2.39.13.23.3.46.5.64.48.44,1.03.6,1.67.67.72.07,1.49-.46,1.83-1.05.39-.67.37-1.47,0-2.14-.35-.65-.85-1.2-1.43-1.66-.6-.47-1.24-.71-1.94-1.01.17.07.34.14.51.21-.09-.04-.19-.08-.28-.13-.03-.02-.23-.16-.26-.16.09.07.18.14.27.21-.14-.15-.1-.09.12.18,0-.07-.14-.26-.17-.33l.21.51c-.41-1.07-.64-2.21-.9-3.32-.25-1.08-1.55-1.83-2.61-1.48-1.13.37-1.75,1.45-1.48,2.61.24,1.03.47,2.08.81,3.09.31.9.74,1.58,1.52,2.14.46.33,1,.51,1.52.72l-.51-.21c.16.07.32.14.47.23.08.05.15.1.23.15.19.11-.41-.37-.14-.1.12.11.23.23.34.35.17.18-.28-.43-.11-.13.05.09.11.18.16.28.61-1.07,1.22-2.13,1.83-3.2-.03,0-.06,0-.09,0,.36.1.72.19,1.07.29.2.15.37.32.52.52l.21.51s-.02-.06-.02-.09c.03.19.05.38.08.56-.01-.09-.01-.18,0-.27-.03.19-.05.38-.08.56.08-.49.18-.99.15-1.5-.03-.46-.1-.91-.18-1.36-.12-.66-.23-1.33-.33-2,.03.19.05.38.08.56-.13-1-.17-2.01-.33-3.01-.25-1.49-1.47-2.54-2.95-2.63-1.11-.07-2.17,1.02-2.12,2.12.05,1.21.93,2.06,2.12,2.12"/>
          <g class="cls-9">
            <g class="cls-59">
              <path class="cls-21" d="m265.92,218.91c.58-.07,1.16-.07,1.74,0-2.03-.27-4.07-.55-6.1-.82.68.1,1.33.29,1.96.55-1.83-.77-3.65-1.54-5.48-2.31.95.41,1.83.96,2.65,1.58-1.55-1.2-3.1-2.39-4.64-3.59,2.32,1.79,4.25,4.08,6.18,6.27,2.07,2.35,4.06,4.78,5.98,7.26-1.2-1.55-2.39-3.1-3.59-4.64,2.01,2.61,3.95,5.27,5.76,8.02,1.76,2.65,3.37,5.41,4.62,8.35-.77-1.83-1.54-3.65-2.31-5.48,1.07,2.55,1.78,5.19,2.16,7.93-.27-2.03-.55-4.07-.82-6.1.52,3.96.44,7.98.37,11.96-.07,4-.25,8.01-.78,11.99.27-2.03.55-4.07.82-6.1-.62,4.62-1.77,9.12-3.58,13.42.77-1.83,1.54-3.65,2.31-5.48-1.73,4.08-3.98,7.92-6.68,11.43,1.2-1.55,2.39-3.1,3.59-4.64-2.68,3.46-5.78,6.58-9.24,9.26,1.55-1.2,3.1-2.39,4.64-3.59-1.01.78-2.05,1.52-3.11,2.22-1.08.71-2.2,1.49-3.39,2,1.83-.77,3.65-1.54,5.48-2.31-.18.06-.34.11-.52.14l6.1-.82c-.12.02-.23.02-.35,0,2.03.27,4.07.55,6.1.82-.11-.01-.22-.04-.32-.08,1.83.77,3.65,1.54,5.48,2.31-.14-.06-.26-.13-.38-.22,1.55,1.2,3.1,2.39,4.64,3.59-.2-.17-.36-.35-.52-.56,1.2,1.55,2.39,3.1,3.59,4.64-1.61-2.17-3.15-4.42-4.99-6.4-.52-.56-1.08-1.06-1.67-1.54-1.93-1.54-4.21-3.55-6.54-4.85-2.34-1.3-4.93-2.27-7.4-3.2-2.46-.93-5.23-1.15-7.8-1.23-2.26-.07-5.2.55-6.89.87-.29.06-.57.13-.85.23-.81.3-4.29,1.5-6.04,2.62-3.49,2.24-6.51,4.89-8.56,8.57-1.05,1.88-1.96,3.89-2.5,5.97-.95,3.67-1.29,9.15.1,12.78,12.78-7.44,25.57-14.89,38.35-22.33-5.13-5.21-9.95-10.72-14.42-16.51,1.2,1.55,2.39,3.1,3.59,4.64-4.55-5.89-8.9-12.05-12.52-18.57-1.01-1.82-1.94-3.68-2.75-5.59.77,1.83,1.54,3.65,2.31,5.48-1.22-2.9-2.15-5.93-2.58-9.05.27,2.03.55,4.07.82,6.1-.32-2.4-.35-4.83-.04-7.23-.27,2.03-.55,4.07-.82,6.1.27-2,.77-3.95,1.56-5.8-.77,1.83-1.54,3.65-2.31,5.48.62-1.45,1.41-2.81,2.36-4.06-1.2,1.55-2.39,3.1-3.59,4.64,1.58-2.04,3.54-3.71,5.57-5.28l-4.64,3.59c.57-.44,1.14-.87,1.72-1.3-10.47-10.47-20.93-20.93-31.4-31.4-1.29,2.44-2.79,4.76-4.48,6.94,1.2-1.55,2.39-3.1,3.59-4.64-1.14,1.47-2.36,2.87-3.66,4.2,13.06,5.41,26.12,10.82,39.17,16.23.02-1.11.11-2.22.25-3.33l-.82,6.1c.35-2.48,1.02-4.91,1.98-7.22-.77,1.83-1.54,3.65-2.31,5.48.98-2.31,2.24-4.48,3.77-6.47-1.2,1.55-2.39,3.1-3.59,4.64,1.44-1.85,3.1-3.51,4.94-4.94-1.55,1.2-3.1,2.39-4.64,3.59,1.99-1.53,4.16-2.79,6.47-3.77-1.83.77-3.65,1.54-5.48,2.31,2.32-.96,4.74-1.63,7.22-1.98-2.03.27-4.07.55-6.1.82,1.52-.2,3.02-.23,4.55-.27.41,0,.81-.03,1.21-.07,2.08-.22,4.38-.52,6.44-.87.22-.04.45-.08.67-.14,4.63-1.26,8.2-3.45,11.68-6.69.1-.09.19-.19.29-.29.67-.72,1.87-2.41,1.92-2.48-.09.11,1.33-1.62,1.88-2.43.08-.11.15-.22.22-.34.04-.08.08-.16.12-.24.77-1.83,1.54-3.65,2.31-5.48.02-.04.03-.08.05-.12.05-.14.1-.29.13-.44.02-.06.02-.13.03-.19.1-.53.8-5.66.83-6.16,0-.15.01-.29,0-.44-.05-.96-.65-4.87-.43-3.17.25,1.88-.17-2.34-.45-3.23-.02-.06-.04-.12-.05-.18-.02-.04-.03-.08-.05-.12-.77-1.83-1.54-3.65-2.31-5.48-.06-.11-.12-.22-.19-.33l-1.79-2.32c-.62-.82-1.25-1.64-1.89-2.44-.05-.06-.1-.11-.16-.17-.06-.05-.12-.1-.18-.15-1.55-1.2-3.1-2.39-4.64-3.59l-.13-.09c-.16-.1-.32-.18-.48-.26-1.11-.52-4.39-1.91-5.55-2.34-.1-.04-.2-.08-.3-.11-.35-.12-.71-.2-1.06-.26-2.1-.36-4.29-.61-6.41-.87-.18-.02-.36-.04-.53-.06-.36-.03-.71-.03-1.07-.01-.15,0-.3.02-.46.03-2.15.2-4.34.55-6.48.86-.35.05-.7.11-1.05.2-.32.08-.64.17-.96.28-.17.06-.34.12-.51.19-1.95.77-3.92,1.61-5.84,2.46-.65.29-1.27.62-1.86,1-.31.2-.61.41-.91.64-1.81,1.37-3.67,2.7-5.38,4.19-.54.47-1.04.98-1.5,1.52-1.45,1.7-2.79,3.53-4.13,5.32-.24.32-.47.64-.68.98-.43.66-.82,1.35-1.17,2.05-.19.39-.38.79-.55,1.19-.95,2.19-1.92,4.39-2.77,6.62-.31.82-.59,1.66-.85,2.5-.53,1.75-.95,3.53-1.36,5.31l-.82,6.1.82,6.1c.77,1.83,1.54,3.65,2.31,5.48,1.44,2.67,3.41,4.82,5.91,6.44,1.43,1.42,3.12,2.41,5.06,2.95,1.79,1.04,3.72,1.56,5.79,1.57,2.03.55,4.07.55,6.1,0,3.05-.14,5.9-1.05,8.53-2.72,4.44-3.04,8.98-6.01,13.96-8.11-1.83.77-3.65,1.54-5.48,2.31,2.54-1.06,5.18-1.88,7.91-2.26-2.03.27-4.07.55-6.1.82,2.01-.27,4.04-.29,6.06-.02-2.03-.27-4.07-.55-6.1-.82,1.74.25,3.43.71,5.05,1.39-1.83-.77-3.65-1.54-5.48-2.31,1.73.74,3.34,1.7,4.83,2.85l-4.64-3.59c1.65,1.29,3.13,2.79,4.41,4.44-1.2-1.55-2.39-3.1-3.59-4.64,1.38,1.79,2.52,3.75,3.4,5.83-.77-1.83-1.54-3.65-2.31-5.48.97,2.31,1.59,4.75,1.93,7.23-.27-2.03-.55-4.07-.82-6.1.39,3.03.35,6.09-.04,9.11.27-2.03.55-4.07.82-6.1-.52,3.85-1.59,7.6-3.09,11.18.77-1.83,1.54-3.65,2.31-5.48-1.69,3.99-3.89,7.74-6.54,11.16,1.2-1.55,2.39-3.1,3.59-4.64-2.72,3.5-5.87,6.65-9.38,9.36,1.55-1.2,3.1-2.39,4.64-3.59-3.43,2.64-7.18,4.84-11.17,6.53,1.83-.77,3.65-1.54,5.48-2.31-1.27.53-2.6,1.15-3.97,1.36,2.03-.27,4.07-.55,6.1-.82-.32.03-.62.04-.94,0,2.03.27,4.07.55,6.1.82-.2-.04-.39-.09-.58-.16,1.83.77,3.65,1.54,5.48,2.31-.25-.11-.48-.24-.7-.4,1.55,1.2,3.1,2.39,4.64,3.59-.25-.2-.47-.43-.67-.68,1.2,1.55,2.39,3.1,3.59,4.64-.32-.43-.57-.89-.79-1.38.77,1.83,1.54,3.65,2.31,5.48-.74-1.76-1.1-3.7-1.35-5.58.27,2.03.55,4.07.82,6.1-.38-2.95-.34-5.94.05-8.89-.27,2.03-.55,4.07-.82,6.1.5-3.6,1.51-7.1,2.91-10.46-.77,1.83-1.54,3.65-2.31,5.48,2.05-4.82,4.87-9.27,8.07-13.41-1.2,1.55-2.39,3.1-3.59,4.64.73-.94,1.48-1.87,2.24-2.78l-27.81,3.59s.08.06.12.09c-1.55-1.2-3.1-2.39-4.64-3.59.48.38.91.8,1.29,1.28-1.2-1.55-2.39-3.1-3.59-4.64.53.69.95,1.45,1.29,2.25-.77-1.83-1.54-3.65-2.31-5.48,1.09,2.63,1.53,5.55,1.91,8.35l-.82-6.1c.7,5.35.69,10.77-.02,16.11.27-2.03.55-4.07.82-6.1-.2,1.48-.46,2.95-.77,4.41-.96,3.05-1.09,6.1-.41,9.15.14,3.05,1.05,5.9,2.72,8.53,1.44,2.67,3.41,4.82,5.91,6.44,2.22,2.03,4.82,3.4,7.8,4.11,2.03.27,4.07.55,6.1.82,4.14-.01,8-1.06,11.58-3.13,1.55-1.2,3.1-2.39,4.64-3.59,2.84-2.86,4.81-6.24,5.9-10.13.91-4.29,1.47-8.67,1.88-13.03.22-2.39.3-4.8.24-7.2-.11-4.39-.79-8.74-1.41-13.08-.31-2.16-.68-4.36-1.34-6.45-.74-2.33-1.91-4.79-2.83-6.88-.22-.49-.46-.98-.74-1.43-.13-.22-.28-.42-.43-.63-1.13-1.52-2.48-3.29-3.68-4.76-.1-.12-.19-.24-.29-.35-.17-.19-.34-.37-.53-.54-1.63-1.49-3.47-2.77-5.24-4.07-1.83-.77-3.65-1.54-5.48-2.31-3.05-.96-6.1-1.09-9.15-.41-2.07,0-4,.53-5.79,1.57-2.84.93-5.31,2.51-7.39,4.75-2.21,2.64-4.3,5.39-6.37,8.13-.95,1.26-1.87,2.54-2.74,3.86-1.7,2.58-3.22,5.28-4.47,8.1-2.08,4.69-4.19,9.41-5.18,14.46-.54,2.74-.82,5.54-1.18,8.31-.1.8-.19,1.6-.24,2.41-.11,1.6-.11,3.22.02,4.82.22,2.78.65,5.55,1.07,8.31.12.79.27,1.58.46,2.36.17.74.37,1.48.63,2.19.05.14.11.27.16.41.78,1.9,1.57,3.89,2.43,5.75.14.31.3.61.49.89.6.9,1.44,1.89,2,2.61.5.64,1.3,1.8,2.02,2.59.11.12.22.23.34.33.73.65,2.55,1.97,2.43,1.88.06.04,1.65,1.38,2.49,1.91.11.07.23.14.35.2.06.03.12.05.19.08.8.37,4.73,2.06,5.55,2.34.17.06.34.1.52.14,1.02.21,5.19.74,6.19.83.13.01.25.02.38.02,1.13,0,2.82-.35,3.52-.44.97-.13,2.46-.24,3.61-.52.4-.1.79-.23,1.18-.38.63-.23,1.25-.47,1.87-.73,4.3-1.77,8.59-3.48,12.56-5.92,1.14-.7,2.25-1.45,3.33-2.24,2.08-1.52,4.1-3.12,6.12-4.71.53-.41,1.05-.84,1.56-1.27,2.06-1.75,3.98-3.66,5.75-5.71,2.11-2.46,4.07-5.06,6-7.66.79-1.08,1.55-2.19,2.25-3.32,2.46-3.96,4.17-8.24,5.96-12.54,1.21-2.91,2.14-5.94,2.71-9.04.65-3.55,1.17-7.14,1.39-10.75.1-1.58.09-3.17-.03-4.75-.22-2.77-.66-5.53-1.06-8.27-.12-.78-.26-1.56-.44-2.33-.33-1.42-.76-2.82-1.31-4.18-.97-2.38-1.91-4.81-3.05-7.13-.29-.59-.6-1.16-.93-1.72-.33-.56-.68-1.11-1.05-1.65-1.45-2.1-3.07-4.1-4.67-6.09-.81-1.01-1.7-1.97-2.66-2.84-1.2-1.1-2.52-2.05-3.8-3.04-1.26-.97-2.5-2-3.83-2.87-1.91-1.24-3.97-2.05-6.06-2.93-2.09-.88-4.12-1.82-6.34-2.29-.36-.08-.73-.14-1.09-.2-2.34-.36-4.7-.69-7.06-.95-.75-.08-1.5-.12-2.26-.12-.78,0-1.56.04-2.33.12-2.33.23-4.65.59-6.96.92-.4.06-.8.12-1.2.19-1.49.28-2.96.68-4.39,1.17-.73.25-1.45.53-2.16.82-2.49,1.03-5.01,2.04-7.45,3.19-2.89,1.36-5.64,3.01-8.32,4.74-1.29.84-2.56,1.7-3.83,2.56,11.24,8.64,22.47,17.28,33.71,25.92.7-2.98,1.41-5.97,2.6-8.79-.77,1.83-1.54,3.65-2.31,5.48.68-1.59,1.51-3.12,2.57-4.5-1.2,1.55-2.39,3.1-3.59,4.64.75-.96,1.61-1.82,2.56-2.57-1.55,1.2-3.1,2.39-4.64,3.59.92-.71,1.9-1.3,2.97-1.77-1.83.77-3.65,1.54-5.48,2.31.9-.38,1.84-.65,2.81-.78-2.03.27-4.07.55-6.1.82.81-.1,1.62-.11,2.44,0-2.03-.27-4.07-.55-6.1-.82.57.08,1.13.21,1.67.42-1.83-.77-3.65-1.54-5.48-2.31.24.11.47.23.68.38-1.55-1.2-3.1-2.39-4.64-3.59.16.13.3.27.44.44-1.2-1.55-2.39-3.1-3.59-4.64.07.11.14.21.19.33-.77-1.83-1.54-3.65-2.31-5.48.06.16.11.31.14.48-.27-2.03-.55-4.07-.82-6.1.03.21.03.41,0,.62.27-2.03.55-4.07.82-6.1-.04.26-.11.5-.22.75.77-1.83,1.54-3.65,2.31-5.48-.12.25-.25.47-.41.69,1.2-1.55,2.39-3.1,3.59-4.64-.17.21-.36.4-.57.57,1.55-1.2,3.1-2.39,4.64-3.59-.24.18-.49.31-.76.44,1.83-.77,3.65-1.54,5.48-2.31-.48.19-.97.31-1.48.39,2.03-.27,4.07-.55,6.1-.82-1.55.19-3.13.08-4.69.22-.36.03-.72.07-1.08.12-2.39.31-4.8.58-7.17.98-.74.13-1.48.28-2.2.47-3.38.85-6.57,2.39-9.75,3.75-1.41.6-2.77,1.31-4.06,2.13-.64.4-1.26.82-1.86,1.27-2.14,1.6-4.32,3.19-6.33,4.95-1.15,1.01-2.22,2.11-3.19,3.3-1.43,1.75-2.79,3.56-4.16,5.36-.25.33-.5.67-.74,1.01-.43.62-.83,1.25-1.21,1.9-.39.67-.76,1.36-1.1,2.06-1.16,2.41-2.17,4.91-3.15,7.39-.64,1.6-1.13,3.26-1.47,4.96-.09.44-.17.87-.23,1.31-.36,2.38-.69,4.78-.96,7.18-.1.89-.15,1.77-.17,2.66.27,2.03.55,4.07.82,6.1.77,1.83,1.54,3.65,2.31,5.48,1.2,1.55,2.39,3.1,3.59,4.64,2.08,2.24,4.54,3.82,7.39,4.75,1.79,1.04,3.72,1.56,5.79,1.57,2.03.55,4.07.55,6.1,0,2.07,0,4-.53,5.79-1.57,2.84-.93,5.31-2.51,7.39-4.75.82-.84,1.61-1.7,2.36-2.59,1.98-2.34,3.84-4.79,5.65-7.26,1.38-1.89,2.62-3.87,3.72-5.94.77-1.83,1.54-3.65,2.31-5.48.96-3.05,1.09-6.1.41-9.15,0-2.07-.53-4-1.57-5.79-.93-2.84-2.51-5.31-4.74-7.39-1.55-1.2-3.1-2.39-4.64-3.59-1.83-.77-3.65-1.54-5.48-2.31-3.05-.96-6.1-1.09-9.15-.41-3.05.14-5.9,1.05-8.53,2.72-2.71,2.04-5.44,4.06-8.05,6.24-1.1.92-2.15,1.89-3.1,2.97-1.71,1.95-3.27,4.03-4.77,6.14-.38.53-.72,1.08-1.04,1.65-.32.57-.6,1.15-.86,1.74-1.01,2.3-2.19,4.82-3,7.3-.41,1.24-.7,2.52-.89,3.81-.47,3.2-1.09,6.58-1.08,9.87,0,3.29.63,6.69,1.08,9.89.2,1.43.5,2.84.89,4.23.39,1.41.87,2.79,1.42,4.14,1.26,3.12,2.53,6.29,4.05,9.31,1.35,2.68,2.89,5.26,4.51,7.79,4.26,6.67,9.02,12.96,13.91,19.18,4.18,5.31,8.65,10.38,13.39,15.19,1.55,1.2,3.1,2.39,4.64,3.59,2.63,1.68,5.48,2.58,8.53,2.72,2.03.55,4.07.55,6.1,0,3.05-.14,5.9-1.05,8.53-2.72,1.55-1.2,3.1-2.39,4.64-3.59,1.2-1.55,2.39-3.1,3.59-4.64,1.68-2.63,2.58-5.48,2.72-8.53.68-3.05.55-6.1-.41-9.15-.04-.1-.07-.19-.09-.3.27,2.03.55,4.07.82,6.1-.01-.1-.02-.18-.01-.28-.27,2.03-.55,4.07-.82,6.1.01-.09.03-.17.06-.26-.77,1.83-1.54,3.65-2.31,5.48.05-.11.11-.21.18-.31-1.2,1.55-2.39,3.1-3.59,4.64.08-.1.18-.18.28-.26-1.55,1.2-3.1,2.39-4.64,3.59.18-.13.36-.23.56-.31-1.83.77-3.65,1.54-5.48,2.31.3-.12.6-.19.91-.24l-6.1.82c.37-.05.73-.05,1.09-.01l-6.1-.82c.62.09,1.21.33,1.79.56-1.83-.77-3.65-1.54-5.48-2.31,1.15.49,2.23,1.11,3.23,1.87l-4.64-3.59c.99.77,1.87,1.64,2.64,2.63-1.2-1.55-2.39-3.1-3.59-4.64,1.44,1.89,2.77,3.87,4.35,5.65,2.62,2.96,7.28,5.52,11.07,6.51,4.64,1.21,8,1.02,12.64.01.12-.03.23-.05.35-.08.06-.02.11-.04.17-.06,1.83-.77,3.65-1.54,5.48-2.31.51-.23.99-.51,1.47-.8,1.64-.97,3.21-2.03,4.73-3.18,3.02-2.29,6.11-4.56,8.86-7.18,1.38-1.31,2.68-2.69,3.91-4.15,2.45-2.9,4.8-5.92,6.93-9.07,1.08-1.6,2.07-3.25,2.96-4.96.43-.83.85-1.67,1.23-2.52,1.19-2.61,2.3-5.26,3.35-7.93.7-1.79,1.31-3.63,1.79-5.49.58-2.2.99-4.43,1.3-6.68.6-4.36,1.21-8.67,1.44-13.06.12-2.43.17-4.86.2-7.29.03-2.36.03-4.72-.13-7.07-.22-3.18-.71-6.36-1.19-9.5-.18-1.18-.42-2.35-.74-3.5-.29-1.05-.64-2.08-1.04-3.09-.91-2.29-1.87-4.57-2.88-6.82-.23-.52-.48-1.04-.74-1.56-2-4.01-4.6-7.72-7.25-11.33-3.87-5.27-7.9-10.46-12.25-15.35-1.42-1.6-2.85-3.23-4.45-4.66-2.2-1.97-4.52-3.86-7.03-5.4-.39-.24-.79-.46-1.21-.64-1.95-.88-4-1.77-6-2.53-.25-.09-.49-.17-.75-.24-.2-.05-.4-.1-.61-.14-1.1-.2-2.38-.33-3.36-.46-.96-.13-2.25-.35-3.36-.44-.48-.04-.95-.02-1.43.03-3.16-.12-6.11.54-8.84,1.98-2.84.93-5.31,2.51-7.39,4.74-2.24,2.08-3.82,4.54-4.74,7.39-1.44,2.73-2.1,5.68-1.98,8.84.27,2.03.55,4.07.82,6.1,1.09,3.89,3.06,7.26,5.9,10.13l4.64,3.59c3.58,2.08,7.44,3.12,11.58,3.13"/>
            </g>
          </g>
          <path class="cls-14" d="m315.69,221.97c.83-.28,1.66-.56,2.5-.84.39-.13.79-.27,1.18-.4.09-.03.17-.06.26-.09.03-.01.07-.02.11-.03.13-.03.14-.04.05-.02,0,.02-.62-.1-.67-.33,0,.04.14.32.06.09.05.15.09.31.13.46.1.35,0-.14.02.08,0,.1.02.2.03.3.02.4.02.79.02,1.19,0,.81-.03,1.61-.07,2.42-.05.83-.12,1.65-.22,2.48-.02.22-.05.43-.08.65,0-.06.03-.21,0,.05-.01.09-.02.17-.04.26-.06.43-.13.86-.21,1.29-.29,1.61-.66,3.21-1.13,4.77-.26.88-.55,1.75-.86,2.61-.16.43-.32.86-.49,1.28-.03.08-.07.16-.1.24,0,.01-.15.37-.07.18-.1.24-.21.48-.31.72-.27.61-.2,1.4.46,1.74.55.29,1.46.19,1.74-.46,1.49-3.36,2.6-6.86,3.24-10.48.32-1.83.54-3.68.64-5.54.05-.89.07-1.79.06-2.68,0-.96-.07-1.94-.52-2.82-.32-.62-.96-1.05-1.67-1.05-.56,0-1.11.25-1.62.43-1.03.35-2.06.69-3.09,1.04-.63.21-1.11.89-.89,1.57.2.63.89,1.12,1.57.89"/>
          <path class="cls-14" d="m214.03,222.86c.11-1.04-.62-1.95-1.5-2.4-.91-.46-1.86-.56-2.86-.69-1.1-.15-2.2-.29-3.3-.44-.59-.08-1.17-.17-1.71.17-.71.44-.76,1.19-.76,1.93,0,1.18,0,2.35.01,3.53,0,1.13-.07,2.28.13,3.4.36,2.02,2.1,3.19,3.93,3.78.89.29,1.82.43,2.72.69.24.07.47.14.7.23.05.02.36.16.08.03.12.06.25.12.37.18.09.05.18.1.26.16.06.04.38.3.15.1.18.16.35.32.5.51.42.52,1.37.47,1.8,0,.51-.55.45-1.25,0-1.8-1.07-1.3-2.76-1.79-4.34-2.15-.7-.16-1.38-.32-2.05-.57-.32-.12.24.12-.07-.03-.06-.03-.12-.06-.18-.09-.16-.08-.32-.17-.47-.26-.07-.04-.13-.09-.2-.13-.26-.17.18.18-.04-.04-.12-.12-.24-.27-.37-.37-.13-.1.14.24,0,0-.05-.08-.1-.16-.15-.24-.03-.06-.06-.11-.09-.17.12.27-.02-.1-.03-.13-.02-.08-.04-.16-.06-.24-.09-.36,0,.23-.02-.15-.02-.25-.03-.5-.03-.75-.01-.98,0-1.96,0-2.93,0-.47,0-.94,0-1.41,0-.52.05-1.08,0-1.6,0-.02,0-.03,0-.05-.12.54-.39.83-.81.87,0-.02.32.03.32.03.23.03.46.06.69.09.5.07,1.01.13,1.51.2.55.07,1.1.15,1.65.22.09.01.18.02.28.04.09.01.18.02.28.04-.14-.02-.15-.02-.03,0,.18.04.36.07.53.12.06.02.12.03.18.05.06.02.12.04.17.06-.16-.07-.18-.08-.05-.02.05.03.11.05.16.08.05.03.34.15.16.09-.16-.06,0,.01.06.06.18.14-.12-.24,0,.02.07.15-.08-.31-.03-.06-.07-.38-.02-.07-.03.06-.07.67.64,1.3,1.27,1.27.75-.03,1.2-.56,1.27-1.27"/>
          <g class="cls-9">
            <g class="cls-38">
              <path class="cls-21" d="m317.25,264.1c1.46.06,2.83-.25,4.09-.92,1.32-.43,2.46-1.16,3.42-2.2,1.04-.96,1.77-2.1,2.2-3.42.67-1.27.97-2.63.92-4.09-.13-.94-.25-1.88-.38-2.82-.5-1.8-1.42-3.36-2.73-4.69-.72-.55-1.43-1.11-2.15-1.66-1.66-.96-3.44-1.44-5.36-1.45-1.46-.06-2.83.25-4.09.92-1.32.43-2.46,1.16-3.42,2.2-1.04.96-1.77,2.1-2.2,3.42-.67,1.27-.97,2.63-.92,4.09.13.94.25,1.88.38,2.82.5,1.8,1.42,3.36,2.73,4.69.72.55,1.43,1.11,2.15,1.66,1.66.96,3.44,1.44,5.36,1.45"/>
            </g>
          </g>
          <g class="cls-9">
            <g class="cls-68">
              <path class="cls-21" d="m206.74,269.14c1.46.06,2.83-.25,4.09-.92,1.32-.43,2.46-1.16,3.42-2.2,1.04-.96,1.77-2.1,2.2-3.42.67-1.27.97-2.63.92-4.09-.13-.94-.25-1.88-.38-2.82-.5-1.8-1.42-3.36-2.73-4.69-.72-.55-1.43-1.11-2.15-1.66-1.66-.96-3.44-1.44-5.36-1.45-1.46-.06-2.83.25-4.09.92-1.32.43-2.46,1.16-3.42,2.2-1.04.96-1.77,2.1-2.2,3.42-.67,1.27-.97,2.63-.92,4.09.13.94.25,1.88.38,2.82.5,1.8,1.42,3.36,2.73,4.69.72.55,1.43,1.11,2.15,1.66,1.66.96,3.44,1.44,5.36,1.45"/>
            </g>
          </g>
          <path class="cls-14" d="m229.31,232.59c1.63-2.96,4.65-4.93,7.92-5.61,3.43-.71,6.98.15,9.91,1.98,1.72,1.07,3.25,2.48,4.47,4.1.33.43,1.06,0,.73-.43-2.28-3.02-5.51-5.37-9.2-6.31-3.54-.9-7.36-.37-10.46,1.57-1.7,1.06-3.14,2.51-4.11,4.27-.26.48.47.91.73.43"/>
          <path class="cls-14" d="m281.7,233.43c.11-1.25,1.53-2.01,2.49-2.57,1.21-.7,2.5-1.27,3.84-1.66,2.54-.73,5.25-.74,7.72.26,1.3.53,2.46,1.34,3.38,2.39.36.41.96-.19.6-.6-1.83-2.08-4.53-3.21-7.26-3.41-3.05-.22-6.09.76-8.71,2.27-1.28.74-2.77,1.68-2.91,3.3-.05.54.8.54.85,0"/>
          <path class="cls-14" d="m290.93,228.36c-.67-.5-1.56-.42-2.27-.09-.5.23-.95.72-1.2,1.2-.52.98-.58,2.12-.44,3.2.16,1.23.4,2.47,1.44,3.28.87.67,1.92.83,2.98.62.82-.16,1.59-.66,2.18-1.24.69-.67,1.15-1.49,1.49-2.38.37-.96.5-2.04.35-3.05-.2-1.33-1.52-2.29-2.84-2.22-1.44.08-2.54,1.15-2.92,2.51-.3,1.09-.22,2.4.38,3.37.47.75,1.54,1.12,2.33.61.76-.49,1.11-1.52.61-2.33-.05-.08-.09-.16-.13-.24.06.14.11.27.17.41-.08-.21-.14-.42-.17-.64.02.15.04.3.06.45-.03-.26-.03-.52,0-.77-.02.15-.04.3-.06.45.03-.25.09-.49.19-.72-.06.14-.11.27-.17.41.06-.14.13-.26.22-.38-.09.11-.18.23-.27.34.1-.12.2-.23.32-.32-.11.09-.23.18-.34.27.08-.05.16-.1.24-.14-.14.06-.27.11-.41.17.1-.04.21-.07.32-.09l-.45.06c.11-.01.22-.01.33,0l-.45-.06c.11.02.22.05.32.09-.14-.06-.27-.11-.41-.17.09.04.17.09.25.15-.11-.09-.23-.18-.34-.27.07.06.12.11.17.18-.09-.11-.18-.23-.27-.34.03.05.06.09.08.15-.06-.14-.11-.27-.17-.41.05.13.08.26.1.4-.02-.15-.04-.3-.06-.45.03.3,0,.59-.03.88.02-.15.04-.3.06-.45-.07.47-.19.93-.37,1.38.06-.14.11-.27.17-.41-.16.38-.36.73-.61,1.06.09-.11.18-.23.27-.34-.2.26-.43.49-.68.7.11-.09.23-.18.34-.27-.21.16-.42.29-.66.4.14-.06.27-.11.41-.17-.21.09-.42.15-.64.18l.45-.06c-.18.02-.36.02-.54,0l.45.06c-.16-.02-.3-.06-.45-.12.14.06.27.11.41.17-.13-.06-.25-.13-.36-.22.11.09.23.18.34.27-.1-.08-.18-.17-.26-.27.09.11.18.23.27.34-.08-.12-.15-.24-.21-.37.06.14.11.27.17.41-.17-.42-.24-.86-.3-1.31.02.15.04.3.06.45-.06-.5-.09-1-.03-1.5-.02.15-.04.3-.06.45.03-.24.09-.47.17-.69-.06.14-.11.27-.17.41.07-.15.14-.28.24-.41-.09.11-.18.23-.27.34.06-.07.13-.14.2-.2-.11.09-.23.18-.34.27.07-.05.14-.09.22-.13-.14.06-.27.11-.41.17.04-.01.07-.02.11-.03l-.45.06c.06,0,.11,0,.17,0l-.45-.06s.08.02.11.03c-.14-.06-.27-.11-.41-.17.06.03.11.06.16.1.33.25.93.28,1.31.17.39-.11.82-.41,1.02-.78.21-.39.31-.87.17-1.31-.14-.45-.41-.74-.78-1.02"/>
          <path class="cls-14" d="m239.22,226.24c-.88-.23-1.71.15-2.21.88-.24.35-.36.78-.49,1.19-.27.85-.37,1.72-.21,2.6.23,1.31,1.24,2.54,2.43,3.1,1.36.63,2.96.64,4.22-.24,1.22-.86,2.06-2.23,2.06-3.75,0-3.05-3.53-5.32-6.28-3.91-.9.46-1.2,1.38-1.47,2.28-.2.69-.38,1.35-.44,2.06-.07.7.08,1.5.47,2.1.54.83,1.41,1.32,2.41,1.35,1.05.03,2.05-.54,2.62-1.41.51-.77.63-1.85.34-2.73-.2-.63-.56-1.26-1.14-1.61-.78-.47-1.79-.41-2.45.25-.51.51-.61,1.19-.67,1.87-.05.52.03,1.05.13,1.56.17.87,1.26,1.46,2.09,1.19.93-.3,1.37-1.15,1.19-2.09-.02-.1-.04-.2-.05-.3.02.15.04.3.06.45-.04-.34-.04-.67,0-1.01-.02.15-.04.3-.06.45.02-.12.04-.23.07-.35-.06.14-.11.27-.17.41.02-.05.04-.09.08-.12-.2.2-.41.41-.61.61.02-.01.04-.03.06-.04-.14.06-.27.11-.41.17.02,0,.04-.02.07-.02l-.45.06s.04,0,.07,0l-.45-.06s.04.01.07.02c-.14-.06-.27-.11-.41-.17.05.02.09.04.13.07-.11-.09-.23-.18-.34-.27.04.03.08.07.11.11-.09-.11-.18-.23-.27-.34.08.11.14.22.19.34-.06-.14-.11-.27-.17-.41.06.15.1.29.12.45-.02-.15-.04-.3-.06-.45.02.16.02.31,0,.47.02-.15.04-.3.06-.45-.02.13-.05.25-.1.37.06-.14.11-.27.17-.41-.05.12-.11.23-.19.33.09-.11.18-.23.27-.34-.06.07-.12.14-.2.2.11-.09.23-.18.34-.27-.09.07-.19.13-.3.18.14-.06.27-.11.41-.17-.13.05-.26.09-.4.11l.45-.06c-.12.01-.23.01-.35,0l.45.06c-.12-.02-.22-.05-.33-.09.14.06.27.11.41.17-.08-.04-.16-.09-.23-.14.11.09.23.18.34.27-.07-.06-.14-.13-.2-.2.09.11.18.23.27.34-.07-.09-.12-.19-.17-.3.06.14.11.27.17.41-.05-.13-.08-.27-.1-.41.02.15.04.3.06.45-.03-.25-.02-.5.01-.74-.02.15-.04.3-.06.45.05-.34.13-.67.23-1,.12-.41.22-.84.38-1.24-.06.14-.11.27-.17.41.03-.08.07-.14.12-.22-.09.11-.18.23-.27.34.05-.07.1-.12.16-.17-.11.09-.23.18-.34.27.09-.06.17-.11.27-.15-.14.06-.27.11-.41.17.16-.06.33-.1.5-.13l-.45.06c.21-.03.42-.03.64,0l-.45-.06c.26.04.51.1.75.2-.14-.06-.27-.11-.41-.17.24.11.47.24.68.4-.11-.09-.23-.18-.34-.27.19.15.35.32.5.5-.09-.11-.18-.23-.27-.34.14.19.26.39.36.61-.06-.14-.11-.27-.17-.41.08.2.13.41.16.62-.02-.15-.04-.3-.06-.45.02.22.02.43-.01.65.02-.15.04-.3.06-.45-.04.24-.11.47-.2.69.06-.14.11-.27.17-.41-.1.22-.22.43-.37.62.09-.11.18-.23.27-.34-.17.21-.35.4-.56.56.11-.09.23-.18.34-.27-.18.13-.36.24-.56.33.14-.06.27-.11.41-.17-.2.08-.41.14-.62.17l.45-.06c-.22.03-.45.03-.67,0l.45.06c-.22-.04-.44-.1-.64-.18.14.06.27.11.41.17-.23-.1-.44-.23-.65-.38.11.09.23.18.34.27-.2-.16-.37-.33-.53-.53.09.11.18.23.27.34-.15-.2-.28-.41-.38-.64.06.14.11.27.17.41-.08-.21-.14-.42-.17-.65.02.15.04.3.06.45-.03-.24-.02-.48,0-.71-.02.15-.04.3-.06.45.07-.51.23-1.02.41-1.5-.06.14-.11.27-.17.41.04-.07.07-.13.12-.2-.09.11-.18.23-.27.34.02-.02.03-.03.05-.05-.11.09-.23.18-.34.27.02-.01.04-.03.05-.04-.14.06-.27.11-.41.17.02,0,.04-.02.06-.02l-.45.06s.04,0,.06,0l-.45-.06s.04.01.06.02c.86.23,1.89-.28,2.09-1.19.2-.89-.27-1.85-1.19-2.09"/>
          <path class="cls-22" d="m317.47,222.34c.31-.13.63-.25.94-.38.29-.12.58-.28.89-.33h-1.13s.07.01.1.02c-.17-.07-.34-.14-.51-.21-.2-.2-.41-.39-.61-.59-.07-.17-.14-.34-.21-.51.08.23.13.46.16.7-.03-.19-.05-.38-.08-.56.05.43.03.85-.02,1.27.03-.19.05-.38.08-.56-.17,1.28-.56,2.53-.86,3.78-.31,1.27-.6,2.54-.85,3.83-.52,2.69-.88,5.46-.69,8.2.05.8.15,1.6.28,2.39.2,1.14,1.24,2.23,2.46,2.18,1.25-.06,1.96-.89,2.57-1.88.33-.53.6-1.09.88-1.65.61-1.23,1.23-2.51,1.53-3.86.3-1.4.35-2.84.24-4.27-.22-3.05-1.02-6-2.05-8.87-.19-.53-.48-.98-.98-1.27-.46-.27-1.13-.38-1.64-.21-1.03.33-1.89,1.49-1.48,2.61.82,2.27,1.51,4.59,1.84,6.98-.03-.19-.05-.38-.08-.56.19,1.42.27,2.87.1,4.29.03-.19.05-.38.08-.56-.12.87-.37,1.7-.7,2.51l.21-.51c-.29.69-.63,1.37-.97,2.04-.16.33-.33.65-.52.97-.09.15-.18.29-.27.44-.03.04-.28.38-.06.1.1-.12.12-.15.06-.08-.11.13-.03.06.24-.19.17-.07.34-.14.51-.21-.03,0-.05,0-.08.01h1.13s-.05,0-.07-.01c.17.07.34.14.51.21.17.1.31.24.43.4.12.18.15.2.08.07l.21.51c-.09-.25-.12-.52-.15-.79.03.19.05.38.08.56-.29-2.2-.2-4.42.09-6.62-.03.19-.05.38-.08.56.37-2.68,1.02-5.3,1.66-7.92.37-1.51.71-3.01.44-4.58-.25-1.45-1.42-2.63-3-2.25-.62.15-1.23.47-1.83.71-.53.21-.97.46-1.27.98-.27.46-.38,1.13-.21,1.64.17.51.49,1.01.98,1.27.47.25,1.12.42,1.64.21"/>
          <path class="cls-22" d="m211.11,221.18c.04,6.41.8,12.88,3.45,18.78,2.29,5.11,6.15,9.65,11.23,12.14,5.19,2.55,11.05,3.07,16.76,2.78,2.78-.14,5.55-.46,8.31-.82,1.61-.21,3.37-.32,4.75-1.29,1.55-1.09,2.26-2.71,2.9-4.43,1.14-3.05,1.93-6.24,2.8-9.37.9-3.2,1.79-6.41,2.69-9.61.22-.79.44-1.58.66-2.37.3-1.07-.37-2.36-1.48-2.61-1.13-.26-2.29.34-2.61,1.48-1.65,5.89-3.23,11.79-4.95,17.66-.46,1.58-.96,3.16-1.59,4.68l.21-.51c-.1.24-.21.48-.34.72-.07.13-.14.26-.22.39-.04.07-.33.47-.09.15.24-.32-.07.06-.12.12-.05.06-.43.37-.12.13.31-.24-.1.05-.17.09-.13.08-.27.14-.41.2.17-.07.34-.14.51-.21-.69.28-1.43.4-2.16.5l.56-.08c-4.44.59-8.91,1.12-13.39.97-1.25-.04-2.5-.14-3.73-.3.19.03.38.05.56.08-2.24-.31-4.45-.85-6.54-1.72.17.07.34.14.51.21-1.05-.44-2.06-.96-3.02-1.57-.49-.31-.97-.65-1.44-1-.18-.13.23.17.21.16-.05-.01-.13-.1-.18-.14-.1-.08-.2-.16-.3-.25-.23-.19-.45-.39-.67-.59-.83-.76-1.59-1.58-2.29-2.45-.08-.1-.16-.21-.24-.31.43.54.08.1,0-.02-.17-.23-.33-.45-.49-.69-.33-.48-.64-.97-.94-1.47-.65-1.1-1.22-2.25-1.72-3.43.07.17.14.34.21.51-1.22-2.92-1.96-6.01-2.38-9.14.03.19.05.38.08.56-.35-2.63-.49-5.29-.5-7.94,0-1.11-.97-2.18-2.12-2.12-1.15.05-2.13.93-2.12,2.12"/>
          <path class="cls-14" d="m262.66,233.46c.75-.24,1.5-.47,2.27-.66.2-.05.39-.09.59-.13.09-.02.18-.03.26-.05,0,0,.34-.05.23-.04-.1.01.14-.02.16-.02.11-.01.22-.02.33-.03.18-.01.37-.02.55-.02.15,0,.3,0,.45.01.09,0,.19.01.28.02.13.01.12.02,0,0,.33.06.66.12.98.23.07.02.14.05.21.07.23.08-.08-.05.06.02.13.06.27.13.4.2.15.08.28.17.42.27.19.13-.05-.06.05.04.06.07.14.12.21.19.48.46,1.33.52,1.8,0,.46-.5.52-1.31,0-1.8-1.25-1.19-2.92-1.74-4.62-1.79-1.82-.06-3.59.48-5.31,1.02-.64.2-1.11.9-.89,1.57.21.64.89,1.1,1.57.89"/>
          <path class="cls-22" d="m268.82,226.61c.77,3.14,1.53,6.27,2.3,9.41.67,2.75,1.33,5.48,2.46,8.09,1.14,2.64,2.93,4.92,5.36,6.48,2.31,1.49,5.04,2.23,7.71,2.75,3.05.59,6.13,1.11,9.22,1.41,3.19.31,6.43.27,9.56-.46,1.47-.34,2.94-.86,4.24-1.62,1.44-.85,2.6-2.01,3.51-3.41.81-1.24,1.36-2.65,1.88-4.03.53-1.41.98-2.86,1.36-4.32,1.54-5.89,1.99-12.11,1.22-18.14-.11-.87-.24-1.74-.39-2.61-.09-.5-.56-1.03-.98-1.27-.46-.27-1.13-.38-1.64-.21-.51.17-1.01.49-1.27.98-.28.53-.32,1.05-.21,1.64.1.59.2,1.19.28,1.79-.03-.19-.05-.38-.08-.56.54,4.07.53,8.19,0,12.25.03-.19.05-.38.08-.56-.51,3.8-1.47,7.58-2.95,11.12l.21-.51c-.24.58-.51,1.15-.82,1.7-.15.27-.32.54-.49.79-.08.12-.16.28-.27.38.05-.04.31-.37.12-.16-.06.07-.12.15-.19.22-.21.23-.43.45-.66.66-.06.05-.12.1-.18.15-.06.05-.28.23-.01.01.27-.21.04-.04-.02,0-.06.05-.13.09-.19.13-.54.36-1.11.65-1.7.91.17-.07.34-.14.51-.21-1.43.6-2.96.94-4.5,1.15.19-.03.38-.05.56-.08-2.96.38-5.96.18-8.91-.21.19.03.38.05.56.08-2.12-.29-4.23-.64-6.33-1.03-1.86-.35-3.72-.78-5.47-1.51.17.07.34.14.51.21-.75-.32-1.48-.69-2.17-1.13-.19-.12-.37-.25-.55-.38-.29-.21.32.26.12.09-.07-.06-.15-.12-.22-.18-.33-.27-.64-.57-.93-.88-.14-.15-.27-.3-.4-.45-.06-.07-.12-.14-.17-.21-.14-.17.34.45.06.08-.24-.32-.46-.66-.67-1-.43-.71-.8-1.45-1.12-2.22l.21.51c-.76-1.82-1.26-3.73-1.74-5.64-.58-2.35-1.15-4.71-1.73-7.06-.33-1.36-.67-2.73-1-4.09-.26-1.08-1.54-1.83-2.61-1.48-1.12.36-1.77,1.46-1.48,2.61"/>
          <path class="cls-14" d="m203.19,220.76c-1.19,5.01-1.79,10.19-1.56,15.34.23,5.24,1.36,10.39,2.83,15.41,2.57,8.76,5.97,17.3,10.2,25.39,4.19,8.02,9.25,15.6,15.15,22.46,6.1,7.09,13.08,13.86,21.82,17.52,4.41,1.85,9.08,2.96,13.77,3.82,2.36.43,4.73.8,7.1,1.16,2.55.39,5.18.74,7.7-.04,2.32-.71,4.29-2.14,6.18-3.61,1.84-1.43,3.64-2.93,5.39-4.48,3.5-3.1,6.82-6.41,9.92-9.92,3.13-3.54,6.06-7.27,8.75-11.16,2.72-3.93,5.22-8.03,6.99-12.49,1.22-3.06,1.86-6.24,2.39-9.47.47-2.86.86-5.74,1.23-8.62.86-6.79,1.55-13.61,1.98-20.44.37-5.75.73-11.65.11-17.39-.11-.98-.24-1.96-.46-2.92-.37-1.6-2.83-.92-2.46.68.1.42.18.85.25,1.28.02.11.03.22.05.33.03.22-.03-.27.01.09.03.26.06.52.09.77.12,1.17.18,2.34.22,3.51.09,2.88.03,5.77-.09,8.65-.28,6.75-.87,13.49-1.62,20.2-.62,5.52-1.24,10.67-2.28,16.17-1.65,8.73-6.84,16.38-12.2,23.29-5.61,7.23-12.09,13.79-19.25,19.49-1.73,1.37-3.55,2.83-5.67,3.53-2.27.75-4.65.39-6.96.03-4.66-.72-9.33-1.45-13.89-2.69-4.47-1.21-8.75-2.94-12.63-5.5-3.82-2.52-7.19-5.65-10.37-8.93-6.1-6.29-11.36-13.35-15.82-20.89-4.49-7.59-8.16-15.65-11.04-23.97-1.58-4.56-3.01-9.21-3.94-13.95-.96-4.91-1.17-9.9-.66-14.87.25-2.4.68-4.77,1.24-7.11.38-1.6-2.08-2.28-2.46-.68"/>
          <path class="cls-14" d="m287.19,162.3c5.24-1.55,10.77,1.12,14.37,4.88,4.03,4.21,6.27,9.73,8.84,14.88,2.47,4.94,5.22,9.75,8.3,14.33,3.07,4.56,6.47,8.9,10.24,12.9,3.75,3.98,7.88,7.61,12.37,10.75.57.4,1.14.79,1.72,1.17.34.23.66-.33.32-.55-4.64-3.06-8.91-6.64-12.8-10.61-3.9-3.98-7.42-8.33-10.58-12.92-3.17-4.6-6-9.43-8.53-14.41-2.61-5.14-4.79-10.64-8.59-15.06-3.38-3.93-8.58-7.02-13.93-6.37-.64.08-1.28.21-1.9.39-.39.12-.23.73.17.61"/>
          <path class="cls-14" d="m270.36,164.95c.76-1.65-.22-3.31-1.33-4.52-1.21-1.32-2.69-2.46-4.1-3.55-2.91-2.25-6.06-4.19-9.36-5.8-3.33-1.62-6.83-2.92-10.43-3.83-3.78-.96-7.81-1.37-11.38.52-1.58.84-2.96,2-4.23,3.25-1.3,1.29-2.48,2.68-3.57,4.15-2.23,3.02-3.97,6.39-5.18,9.94-1.3,3.84-1.97,7.87-2.37,11.89-.39,3.83-.35,7.73-1.04,11.52-.32,1.76-.81,3.51-1.64,5.1-.85,1.64-2.06,3.02-3.47,4.21-1.45,1.23-3.07,2.25-4.69,3.23-1.75,1.06-3.55,2.06-5.38,2.98-.92.46-1.84.91-2.77,1.33-.37.17-.05.72.32.55,3.63-1.66,7.17-3.58,10.49-5.8,1.48-.99,2.91-2.09,4.11-3.42,1.17-1.3,2.05-2.8,2.67-4.43,1.27-3.35,1.43-7,1.65-10.53.25-3.99.61-7.98,1.46-11.89,1.58-7.27,5.14-14.18,10.69-19.22,1.31-1.19,2.78-2.25,4.44-2.89,1.86-.72,3.86-.84,5.82-.64,1.95.2,3.87.68,5.75,1.23,1.73.5,3.43,1.1,5.1,1.77,3.35,1.36,6.55,3.06,9.56,5.05,1.54,1.02,3.03,2.13,4.46,3.31,1.33,1.1,2.85,2.25,3.67,3.81.38.72.55,1.55.2,2.32-.17.37.38.69.55.32"/>
          <path class="cls-14" d="m279,149.57c4.86-2.11,10.37-1.24,15.22.45,4.62,1.62,9.12,3.94,13,6.93,1.91,1.47,3.68,3.14,5.21,5,1.44,1.75,2.63,3.69,3.64,5.71,2,3.99,3.35,8.25,5,12.39,1.58,3.99,3.47,7.95,6.42,11.13.36.39.74.77,1.13,1.13.3.28.75-.17.45-.45-3.25-3.02-5.34-6.99-7.01-11.05-1.71-4.16-3.05-8.46-4.97-12.53-.96-2.04-2.08-4.01-3.44-5.81-1.46-1.94-3.17-3.68-5.04-5.23-3.8-3.13-8.22-5.52-12.8-7.31-4.79-1.87-10.26-3.08-15.32-1.57-.61.18-1.21.41-1.79.66-.38.16-.05.71.32.55"/>
          <path class="cls-14" d="m253.87,137.69c-3.5-3.42-8.19-5.35-13.03-5.83-4.96-.49-9.92.64-14.32,2.96-4.45,2.35-8.27,5.83-11.24,9.87-3.29,4.48-5.57,9.64-7.13,14.95-.75,2.57-1.26,5.18-1.82,7.8-.49,2.31-1.11,4.74-2.58,6.64-.36.47-.78.89-1.23,1.26-.32.26.14.71.45.45,1.81-1.51,2.8-3.7,3.43-5.93.68-2.4,1.04-4.89,1.63-7.31,1.31-5.32,3.26-10.53,6.19-15.18,2.7-4.3,6.26-8.08,10.56-10.81,4.15-2.64,8.95-4.22,13.89-4.19,4.8.04,9.67,1.53,13.42,4.57.46.37.9.77,1.33,1.19.29.29.74-.16.45-.45"/>
          <path class="cls-17" d="m346.05,193.55c.55,0,.55-.85,0-.85s-.55.85,0,.85"/>
          <path class="cls-14" d="m263.79,236.47c-1.11,6.52-2.73,12.95-4.83,19.23-.51,1.51-1.07,3-1.6,4.5-.47,1.32-.85,2.7-.9,4.12-.06,1.49.37,2.94,1.36,4.07,1,1.14,2.52,1.69,3.95,2.04,3.76.91,7.65,1.02,11.46.4.66-.11,1.09-.96.89-1.57-.23-.72-.86-1-1.57-.89-.2.03-.4.06-.6.09-.22.03.16-.02-.06,0-.09.01-.18.02-.27.03-.42.05-.85.09-1.28.12-.76.05-1.53.07-2.29.06-.81-.01-1.62-.06-2.43-.15-.18-.02-.36-.04-.54-.06-.03,0-.25-.03-.06,0-.09-.01-.18-.03-.27-.04-.4-.06-.8-.13-1.2-.21-.72-.14-1.44-.3-2.14-.53-.14-.05-.28-.1-.43-.15-.05-.02-.22-.1,0,0-.07-.03-.14-.06-.2-.09-.13-.06-.26-.13-.39-.21-.08-.05-.16-.1-.23-.15-.09-.06-.19-.14-.05-.03-.13-.1-.25-.22-.37-.34-.05-.05-.1-.11-.15-.16-.13-.13.11.16,0,.01-.08-.13-.17-.25-.24-.39-.03-.06-.06-.12-.09-.18-.12-.23.06.21-.03-.06-.08-.26-.15-.51-.2-.77-.04-.24,0,0,0,.04,0-.07-.01-.14-.02-.2-.01-.17-.02-.34-.01-.52,0-.16.01-.32.02-.47,0-.07.01-.14.02-.21,0-.04.04-.27.01-.1-.03.2.03-.15.03-.15.01-.07.03-.14.04-.22.03-.18.07-.36.12-.54.15-.61.33-1.21.54-1.8.5-1.43,1.04-2.85,1.53-4.28,1.01-2.99,1.92-6.02,2.71-9.09.89-3.45,1.64-6.95,2.24-10.46.11-.66-.17-1.41-.89-1.57-.62-.14-1.45.19-1.57.89"/>
          <path class="cls-14" d="m280.3,254.47c-1.11-.07-1.82,1.07-1.73,2.07.07.82.36,1.62.65,2.38.26.71.55,1.42.74,2.16.05.18.08.37.11.55-.02-.12-.01-.14,0,0,0,.11.02.22.02.33,0,.17,0,.33-.02.5,0,.14.05-.19-.01.05-.03.11-.05.22-.09.33-.19.64.23,1.42.89,1.57.68.16,1.37-.21,1.57-.89.42-1.43.11-2.89-.38-4.26-.23-.63-.48-1.26-.68-1.9-.1-.32-.18-.63-.25-.96-.04-.19,0-.04,0,.07-.01-.21,0,.08-.03.09,0-.04.02-.08.03-.12.02-.07.01-.05-.02.05-.04.15-.14.24-.31.29-.13.16-.29.24-.48.25.67.04,1.3-.62,1.27-1.27-.03-.73-.56-1.23-1.27-1.27"/>
          <path class="cls-14" d="m244.06,287.38c.05,0,.52.06.26.02.16.02.32.05.47.08.31.06.62.13.93.21.62.16,1.23.36,1.82.58.28.11.56.22.84.33.15.06.3.12.45.18.19.08-.16-.07.03.01.09.04.19.08.28.12.59.26,1.19.52,1.78.77,1.27.54,2.55,1.05,3.9,1.38,1.42.34,2.88.52,4.34.61,2.93.19,5.88.13,8.82.1,2.98-.03,5.96-.11,8.94-.24,3.38-.15,6.75-.36,10.11-.64.66-.05,1.31-.55,1.27-1.27-.03-.64-.56-1.33-1.27-1.27-5.96.49-11.94.78-17.92.87-2.96.04-5.92.08-8.88-.03-.69-.03-1.37-.07-2.06-.13-.73-.07-1.1-.12-1.89-.27-1.31-.26-2.57-.68-3.81-1.18-.08-.03-.15-.06-.22-.09-.03-.01-.32-.13-.18-.08.13.06-.1-.04-.13-.05-.09-.04-.19-.08-.28-.12-.33-.14-.67-.29-1-.44-.73-.32-1.46-.63-2.2-.91-1.42-.54-2.87-.93-4.39-1.06-.67-.06-1.3.63-1.27,1.27.03.74.56,1.21,1.27,1.27"/>
          <g class="cls-8">
            <g class="cls-30">
              <path class="cls-15" d="m278.08,178.18c3.82-.49,7.71-.95,11.56-.45-1.77-.24-3.54-.48-5.31-.71,1.56.21,3.08.59,4.54,1.19-1.59-.67-3.18-1.34-4.77-2.01,1.19.5,2.3,1.15,3.32,1.94l-4.04-3.12c1.27.99,2.38,2.15,3.37,3.42-1.04-1.35-2.08-2.69-3.12-4.04,1.41,1.83,2.56,3.84,3.6,5.9,1.19,2.37,2.27,4.81,3.3,7.26-.67-1.59-1.34-3.18-2.01-4.77,2.76,6.54,5.1,13.26,7.33,19.99.63,1.9,1.26,3.81,1.88,5.72.62,2.6,1.81,4.86,3.57,6.79,1.41,2.17,3.28,3.89,5.6,5.14,2.29,1.46,4.77,2.25,7.43,2.37,2.65.59,5.31.48,7.96-.36,1.59-.67,3.18-1.34,4.77-2.01,3-1.78,5.39-4.16,7.17-7.17.67-1.59,1.34-3.18,2.01-4.77.95-3.54.95-7.08,0-10.62-1.5-4.56-2.99-9.13-4.59-13.66-2.15-6.1-4.58-12.07-7.14-18-1.67-3.87-3.39-7.83-5.86-11.27-.14-.19-.28-.39-.43-.58-1.17-1.53-2.32-3.07-3.53-4.56-.3-.37-.61-.73-.93-1.08-.66-.71-1.37-1.36-2.13-1.95-2-1.56-4.14-3.49-6.5-4.66-.21-.11-.43-.21-.64-.3-1.79-.79-3.6-1.58-5.43-2.28-.49-.19-1-.35-1.51-.49-.49-.14-.99-.25-1.49-.34-2.24-.42-4.51-.67-6.77-.94-1.05-.12-2.11-.17-3.17-.17-2.17,0-4.33.21-6.48.47-.52.06-1.04.13-1.55.2-2.75-.1-5.31.47-7.7,1.72-2.48.81-4.62,2.18-6.43,4.13-1.95,1.81-3.32,3.95-4.13,6.43-1.25,2.38-1.82,4.95-1.72,7.7.24,1.77.48,3.54.71,5.31.95,3.38,2.66,6.32,5.14,8.81,1.35,1.04,2.69,2.08,4.04,3.12,3.12,1.81,6.48,2.72,10.08,2.73"/>
            </g>
          </g>
          <path class="cls-14" d="m287.11,285.92c-.52,2.27-.5,4.64.09,6.9.17.65.92,1.1,1.57.89.67-.22,1.07-.88.89-1.57-.13-.49-.23-.98-.3-1.48.04.28,0-.06-.01-.12-.01-.13-.03-.27-.04-.41-.02-.25-.03-.5-.03-.76,0-.5.01-1.01.07-1.51.01-.12.02-.23.04-.35-.04.29.02-.09.02-.12.04-.27.1-.53.16-.8.15-.65-.2-1.41-.89-1.57-.65-.15-1.41.2-1.57.89"/>
          <g class="cls-8">
            <g class="cls-33">
              <path class="cls-15" d="m281.68,179.77c1.16,1.06,2.18,2.24,3.14,3.48-1.04-1.35-2.08-2.69-3.12-4.04,2.94,3.83,5.53,7.92,8.39,11.81,1.68,2.28,3.42,4.52,5.19,6.75.72.91,1.46,1.81,2.23,2.68,1.53,1.74,3.15,3.39,4.92,4.88,2.25,1.9,4.58,3.74,7.03,5.38,1.09.73,2.23,1.39,3.4,1.98,2.29,1.46,4.77,2.25,7.43,2.37,2.65.59,5.31.48,7.96-.36,2.6-.62,4.86-1.81,6.79-3.58,2.17-1.41,3.89-3.28,5.14-5.6.67-1.59,1.34-3.18,2.01-4.77.95-3.54.95-7.08,0-10.62-.67-1.59-1.34-3.18-2.01-4.77-1.78-3-4.16-5.39-7.17-7.17-1.82-.91-3.54-2.01-5.16-3.25,1.35,1.04,2.69,2.08,4.04,3.12-3.45-2.67-6.37-5.94-9.03-9.37,1.04,1.35,2.08,2.7,3.12,4.04-3.35-4.34-6.26-9-9.57-13.37-1.51-1.99-2.99-4.03-4.64-5.92-.58-.67-1.2-1.31-1.85-1.91-1.81-1.95-3.95-3.32-6.43-4.13-2.38-1.25-4.95-1.82-7.7-1.72-2.75-.1-5.31.47-7.7,1.72-2.48.81-4.62,2.18-6.43,4.13l-3.12,4.04c-1.81,3.12-2.72,6.48-2.73,10.08.24,1.77.48,3.54.71,5.31.95,3.38,2.66,6.32,5.14,8.81"/>
            </g>
          </g>
          <g class="cls-8">
            <g class="cls-62">
              <path class="cls-15" d="m295.67,174.46c1.74.28,3.43.77,5.05,1.45-1.59-.67-3.18-1.34-4.77-2.01,2.1.89,4.05,2.07,5.85,3.46-1.35-1.04-2.69-2.08-4.04-3.12,2.59,2.01,4.85,4.41,6.85,6.99-1.04-1.35-2.08-2.69-3.12-4.04,3.09,4.01,5.47,8.46,7.72,12.98,2.38,4.79,4.62,9.66,7.46,14.21.78,1.25,1.61,2.48,2.5,3.66,1.44,1.93,2.9,3.86,4.44,5.72.48.58.97,1.15,1.48,1.7,1.81,1.95,3.95,3.32,6.43,4.13,2.38,1.25,4.95,1.82,7.7,1.72,2.75.1,5.31-.47,7.7-1.72,2.48-.81,4.62-2.18,6.43-4.13,1.04-1.35,2.08-2.69,3.12-4.04,1.81-3.12,2.72-6.48,2.73-10.08-.24-1.77-.48-3.54-.71-5.31-.95-3.38-2.66-6.32-5.14-8.81-.83-.9-1.62-1.84-2.37-2.81,1.04,1.35,2.08,2.69,3.12,4.04-2.45-3.18-4.46-6.67-6.31-10.23-1.87-3.61-3.58-7.31-5.45-10.92-1.73-3.35-3.62-6.62-5.88-9.65-1.55-2.08-3.12-4.15-4.78-6.14-.59-.71-1.21-1.4-1.85-2.06-2.41-2.52-5.2-4.54-7.97-6.66-1.42-1.08-2.93-2.04-4.54-2.82-.39-.19-.79-.37-1.19-.54-1.97-.84-3.92-1.75-5.94-2.47-.84-.3-1.7-.55-2.57-.74-.43-.1-.87-.18-1.31-.25-2.65-.83-5.31-.95-7.96-.36-2.66.12-5.13.91-7.43,2.37-2.33,1.26-4.2,2.97-5.6,5.14-1.77,1.93-2.96,4.19-3.58,6.79-.24,1.77-.48,3.54-.71,5.31.01,3.61.92,6.97,2.73,10.08,1.04,1.35,2.08,2.69,3.12,4.04,2.49,2.48,5.43,4.19,8.81,5.14"/>
            </g>
          </g>
          <g class="cls-8">
            <g class="cls-48">
              <path class="cls-15" d="m264.44,134.2c-.95-.49-2.03-.88-2.98-1.28-.95-.4-2-.92-3.04-1.24-1.28-.41-2.75-.49-4.03-.66-1.29-.17-2.67-.46-4.01-.42-.23,0-.46.02-.68.04-.12.01-.25.03-.37.04-1.85.23-3.73.46-5.57.75-.99.16-1.94.46-2.87.84-1.78.73-3.58,1.45-5.33,2.26-.24.11-.47.23-.7.35-.47.25-.92.51-1.37.8-.43.28-.85.57-1.26.88-1.52,1.15-3.05,2.31-4.53,3.5-.2.16-.4.33-.6.5-.79.69-1.54,1.43-2.25,2.2-.71.77-1.38,1.56-2.03,2.38-1.68,2.14-3.4,4.27-4.93,6.52-2.4,3.54-4.32,7.37-6.1,11.26-1.75,3.82-3.34,7.72-5.15,11.52-1.75,3.68-3.71,7.3-6.1,10.61-.29.4-.59.8-.89,1.2,1.04-1.35,2.08-2.69,3.12-4.04-1.79,2.31-3.82,4.43-6.13,6.22l4.04-3.12c-.9.69-1.84,1.33-2.82,1.92-2.33,1.26-4.2,2.97-5.6,5.14-1.77,1.93-2.96,4.19-3.57,6.79-.83,2.65-.95,5.31-.36,7.96.12,2.66.91,5.13,2.37,7.43,1.04,1.35,2.08,2.7,3.12,4.04,2.49,2.48,5.43,4.19,8.81,5.14,1.77.24,3.54.48,5.31.71,3.61-.01,6.97-.92,10.08-2.73.76-.45,1.49-.94,2.2-1.46,2.02-1.48,4.03-2.98,5.92-4.62,1.3-1.12,2.5-2.35,3.61-3.65,1.63-1.91,3.13-3.94,4.64-5.93.51-.68,1.01-1.37,1.48-2.07.98-1.45,1.88-2.95,2.73-4.48,3.47-6.25,5.93-12.98,9.06-19.4,1.79-3.67,3.8-7.24,6.29-10.48-1.04,1.35-2.08,2.69-3.12,4.04,1.59-2.05,3.35-4.01,5.4-5.61l-4.04,3.12c1.25-.96,2.61-1.79,4.07-2.41-1.59.67-3.18,1.34-4.77,2.01,1.01-.42,2.05-.73,3.13-.88-1.77.24-3.54.48-5.31.71.8-.1,1.6-.12,2.41-.02-1.77-.24-3.54-.48-5.31-.71.7.09,1.38.27,2.03.54-1.59-.67-3.18-1.34-4.77-2.01.2.08.4.18.59.28,2.29,1.46,4.77,2.25,7.43,2.37,2.65.59,5.31.48,7.96-.36,2.6-.62,4.86-1.81,6.79-3.57,2.17-1.41,3.89-3.28,5.14-5.6.67-1.59,1.34-3.18,2.01-4.77.95-3.54.95-7.08,0-10.62-.67-1.59-1.34-3.18-2.01-4.77-1.78-3-4.16-5.39-7.17-7.17"/>
            </g>
          </g>
          <g class="cls-8">
            <g class="cls-72">
              <path class="cls-15" d="m255.9,146.26c-1.93-.27-3.98-.8-5.98-.76-2.02.04-4.05.4-6.03.79-.26.05-.51.12-.76.22-.85.32-1.8.76-2.54,1.07-.65.27-1.68.68-2.49,1.05-.14.06-.28.13-.41.2-.23.13-.46.27-.68.43-.06.05-.12.09-.18.14-1.3.98-2.88,2.16-4.13,3.19-.12.1-.23.2-.34.3-.2.19-.39.39-.57.61-.08.09-.15.19-.23.28-1.14,1.43-2.31,2.89-3.38,4.38-.69.96-1.21,2.03-1.73,3.1-.53,1.09-1.05,2.18-1.57,3.27-2.09,4.38-4.17,8.79-6.62,12.99-1.38,2.37-2.88,4.66-4.55,6.83l3.12-4.04c-.33.43-.67.85-1.01,1.27-1.95,1.81-3.32,3.95-4.13,6.43-1.25,2.38-1.82,4.95-1.72,7.7-.1,2.75.47,5.31,1.72,7.7.81,2.48,2.18,4.62,4.13,6.43,1.35,1.04,2.7,2.08,4.04,3.12,3.12,1.81,6.48,2.72,10.08,2.73,1.77-.24,3.54-.48,5.31-.71,3.38-.95,6.32-2.66,8.81-5.14.33-.4.65-.81.97-1.22,1.34-1.72,2.7-3.43,3.98-5.19.61-.84,1.2-1.69,1.77-2.56,1.14-1.74,2.19-3.53,3.18-5.35,2.01-3.68,3.8-7.48,5.61-11.27.5-1.05,1.01-2.1,1.52-3.15.51-1.04,1.05-2.08,1.75-3.01l-3.12,4.04c.39-.5.82-.96,1.31-1.36l-4.04,3.12c.43-.33.88-.6,1.37-.81-1.59.67-3.18,1.34-4.77,2.01.39-.15.78-.27,1.19-.33-1.77.24-3.54.48-5.31.71.34-.04.67-.04,1.01,0-1.77-.24-3.54-.48-5.31-.71.04,0,.07.01.11.02,2.65.83,5.31.95,7.96.36,2.66-.12,5.13-.91,7.43-2.37,2.33-1.26,4.2-2.97,5.6-5.14,1.77-1.93,2.96-4.19,3.58-6.79.24-1.77.48-3.54.71-5.31-.01-3.61-.92-6.97-2.73-10.08l-3.12-4.04c-2.49-2.48-5.43-4.19-8.81-5.14"/>
            </g>
          </g>
          <g class="cls-8">
            <g class="cls-3">
              <path class="cls-15" d="m235.62,132.68c-.45.13-.89.28-1.33.44-2.02.75-3.99,1.62-5.96,2.5-.85.38-1.67.82-2.47,1.31-.8.49-1.57,1.02-2.32,1.59-2.07,1.56-4.19,3.12-6.14,4.84-2.86,2.51-5.44,5.37-7.85,8.3-2.27,2.76-4.47,5.6-6.56,8.5-1.12,1.55-2.2,3.14-3.22,4.76-2.03,3.21-3.85,6.54-5.46,9.97-1.63,3.48-3.12,7.03-4.5,10.61-.78,2.01-1.48,4.05-2.11,6.11-.83,2.65-.95,5.31-.36,7.96.12,2.66.91,5.13,2.37,7.43,1.26,2.33,2.97,4.2,5.14,5.6,1.93,1.77,4.19,2.96,6.79,3.58,1.77.24,3.54.48,5.31.71,3.61-.01,6.97-.92,10.08-2.73,1.35-1.04,2.69-2.08,4.04-3.12,2.48-2.49,4.19-5.43,5.14-8.81.91-2.98,1.97-5.91,3.18-8.78-.67,1.59-1.34,3.18-2.01,4.77,2.37-5.59,5.29-10.94,8.72-15.95.97-1.42,1.98-2.8,3.03-4.16l-3.12,4.04c2.64-3.42,5.52-6.72,8.68-9.67.89-.83,1.82-1.63,2.78-2.38l-4.04,3.12c1.7-1.31,3.52-2.45,5.5-3.3-1.59.67-3.18,1.34-4.77,2.01.68-.29,1.38-.54,2.09-.74,2.6-.62,4.86-1.81,6.79-3.57,2.17-1.41,3.89-3.28,5.14-5.6,1.46-2.29,2.25-4.77,2.37-7.43.59-2.65.48-5.31-.36-7.96-.67-1.59-1.34-3.18-2.01-4.77-1.78-3-4.16-5.39-7.17-7.17-1.59-.67-3.18-1.34-4.77-2.01-3.54-.95-7.08-.95-10.62,0"/>
            </g>
          </g>
          <g class="cls-8">
            <g class="cls-44">
              <path class="cls-15" d="m250.3,132.32c-.46-.34-.95-.64-1.46-.9-1.99-1.02-4.07-1.88-6.18-2.61-.53-.18-1.08-.33-1.63-.44-1.11-.21-2.27-.33-3.36-.47-1.13-.15-2.32-.36-3.47-.44-.55-.04-1.11-.05-1.66-.02-2.3.1-4.65.54-6.88.87-1.16.17-2.3.47-3.4.87-2.12.78-4.21,1.67-6.25,2.63-.52.24-1.02.51-1.51.8-.49.29-.96.6-1.42.93-1.58,1.15-3.11,2.37-4.64,3.58-.26.21-.51.42-.76.63-.95.82-1.83,1.72-2.65,2.68-1.89,2.2-3.67,4.51-5.32,6.9-1.45,2.1-2.7,4.33-3.88,6.58-1.34,2.54-2.63,5.1-3.94,7.66-2.78,5.42-5.56,10.85-8.34,16.27-1.31,2.55-2.65,5.08-3.84,7.69-.99,2.18-1.9,4.4-2.81,6.61-.26.64-.51,1.28-.74,1.93-.47,1.31-.86,2.65-1.14,4.02-.49,2.36-.73,4.88-1.03,7.22-.1,2.75.47,5.32,1.72,7.7.81,2.48,2.18,4.62,4.13,6.43,1.81,1.95,3.95,3.32,6.43,4.13,2.38,1.25,4.95,1.82,7.7,1.72,1.77-.24,3.54-.48,5.31-.71,3.38-.95,6.32-2.66,8.81-5.14,1.04-1.35,2.08-2.69,3.12-4.04,1.81-3.12,2.72-6.48,2.73-10.08l.02-.13c-.24,1.77-.48,3.54-.71,5.31.38-2.82,1.26-5.53,2.36-8.14-.67,1.59-1.34,3.18-2.01,4.77,1.18-2.79,2.6-5.48,3.98-8.17,1.48-2.89,2.96-5.78,4.44-8.67,2.85-5.56,5.63-11.16,8.56-16.67,1.42-2.68,2.95-5.31,4.8-7.71-1.04,1.35-2.08,2.69-3.12,4.04,1.35-1.74,2.87-3.35,4.62-4.71-1.35,1.04-2.69,2.08-4.04,3.12,1.24-.96,2.6-1.74,4.04-2.35-1.59.67-3.18,1.34-4.77,2.01,1.41-.59,2.89-1.01,4.4-1.22-1.77.24-3.54.48-5.31.71,1.27-.17,2.56-.18,3.84-.02-1.77-.24-3.54-.48-5.31-.71,1.05.15,2.07.42,3.05.83-1.59-.67-3.18-1.34-4.77-2.01.76.33,1.48.74,2.16,1.22,2.29,1.46,4.77,2.25,7.43,2.37,2.65.59,5.31.48,7.96-.36,2.6-.62,4.86-1.81,6.79-3.57,2.17-1.41,3.89-3.28,5.14-5.6.67-1.59,1.34-3.18,2.01-4.77.95-3.54.95-7.08,0-10.62-.67-1.59-1.34-3.18-2.01-4.77-1.78-3-4.16-5.39-7.17-7.17"/>
            </g>
          </g>
          <g class="cls-8">
            <g class="cls-24">
              <path class="cls-15" d="m270.82,165.46c2.75.1,5.31-.47,7.7-1.72,2.48-.81,4.62-2.18,6.43-4.13,1.95-1.81,3.32-3.95,4.13-6.43,1.25-2.38,1.82-4.95,1.72-7.7-.24-1.77-.48-3.54-.71-5.31-.95-3.38-2.66-6.32-5.14-8.81-1.35-1.04-2.69-2.08-4.04-3.12-3.12-1.81-6.48-2.72-10.08-2.73-2.75-.1-5.31.47-7.7,1.72-2.48.81-4.62,2.18-6.43,4.13-1.95,1.81-3.32,3.95-4.13,6.43-1.25,2.38-1.82,4.95-1.72,7.7.24,1.77.48,3.54.71,5.31.95,3.38,2.66,6.32,5.14,8.81,1.35,1.04,2.69,2.08,4.04,3.12,3.12,1.81,6.48,2.72,10.08,2.73"/>
            </g>
          </g>
          <g class="cls-8">
            <g class="cls-66">
              <path class="cls-15" d="m224.27,179.22h-.72c-1.77.24-3.54.48-5.31.71-.8.34-1.59.67-2.39,1.01-2.48.81-4.62,2.18-6.43,4.13-1.95,1.81-3.32,3.95-4.13,6.43-.34.8-.67,1.59-1.01,2.39l-.71,5.31c.24,1.77.48,3.54.71,5.31.95,3.38,2.66,6.32,5.14,8.81,1.35,1.04,2.69,2.08,4.04,3.12,3.12,1.81,6.48,2.72,10.08,2.73h.72c1.77-.24,3.54-.48,5.31-.71.8-.34,1.59-.67,2.39-1.01,2.48-.81,4.62-2.18,6.43-4.13,1.95-1.81,3.32-3.95,4.13-6.43.34-.8.67-1.59,1.01-2.39.24-1.77.48-3.54.71-5.31-.24-1.77-.48-3.54-.71-5.31-.95-3.38-2.66-6.32-5.14-8.81-1.35-1.04-2.69-2.08-4.04-3.12-3.12-1.81-6.48-2.72-10.08-2.73"/>
            </g>
          </g>
          <g class="cls-8">
            <g class="cls-29">
              <path class="cls-15" d="m266,165.35c2.23,3.66,4.64,7.21,7.21,10.64,3.56,4.73,7.21,9.41,11.22,13.78,1.64,1.79,3.33,3.53,5.07,5.23,1.81,1.95,3.95,3.32,6.43,4.13,2.38,1.25,4.95,1.82,7.7,1.72,2.75.1,5.31-.47,7.7-1.72,2.48-.81,4.62-2.18,6.43-4.13,1.04-1.35,2.08-2.7,3.12-4.04,1.81-3.12,2.72-6.48,2.73-10.08-.24-1.77-.48-3.54-.71-5.31-.95-3.38-2.66-6.32-5.14-8.81-3.42-3.33-6.65-6.85-9.68-10.53-.86-1.04-1.7-2.1-2.53-3.17,1.04,1.35,2.08,2.7,3.12,4.04-2.94-3.81-5.67-7.78-8.17-11.89-1.26-2.33-2.97-4.2-5.14-5.6-1.93-1.77-4.19-2.96-6.79-3.57-2.65-.83-5.31-.95-7.96-.36-2.66.12-5.13.91-7.43,2.37l-4.04,3.12c-2.48,2.49-4.19,5.43-5.14,8.81-.24,1.77-.48,3.54-.71,5.31.01,3.61.92,6.97,2.73,10.08"/>
            </g>
          </g>
          <path class="cls-14" d="m323.32,247.75c.19-.02.38-.03.58-.03.04,0,.08,0,.11,0,.19.02.15.01-.11-.02,0,0,.24.05.23.04.19.04.37.1.55.16.36.12-.25-.13-.03-.01.12.07.24.12.36.19.12.07.44.2.49.32-.07-.14-.22-.18-.07-.05.09.08.18.15.26.23.13.12.25.24.37.37.05.05.09.1.13.15.04.05.09.1.13.16-.05-.06-.09-.12-.14-.19.14.29.39.55.55.84.08.15.16.3.23.45.01.03.03.06.04.09.07.17.05.12-.05-.13.01.09.08.2.11.28.11.32.21.64.28.97.04.17.07.33.1.5.02.12,0,.29-.02-.15,0,.12.03.24.04.36.03.32.04.65.04.98,0,.17-.01.34-.02.52,0,.1-.02.21-.03.31-.01.14-.12.42.01-.04-.09.33-.12.68-.2,1.01-.09.35-.2.69-.32,1.03-.01.03-.11.23-.1.25-.03-.05.15-.33.04-.1-.08.17-.15.34-.24.5-.18.36-.39.72-.6,1.06-.1.16-.2.31-.31.46-.1.14-.2.35-.33.45.23-.18.15-.2.06-.08-.07.09-.14.17-.21.26-.13.16-.27.31-.4.46-.58.63-1.21,1.22-1.88,1.76-.07.06-.15.12-.22.18-.28.23.26-.19-.01,0-.18.13-.36.27-.54.4-.37.26-.74.51-1.12.75-.75.48-1.12,1.53-.61,2.33.48.75,1.52,1.12,2.33.61,3.11-1.97,5.85-4.57,7.28-8.03,1.28-3.09,1.15-7.06-.83-9.83-1.33-1.86-3.52-3.46-5.93-3.18-.47.05-.86.15-1.2.5-.29.29-.52.78-.5,1.2.04.83.75,1.81,1.7,1.7"/>
          <path class="cls-14" d="m203.83,245.44c-.19.07-.38.14-.59.18-.07.01-.18.02-.24.04.25-.11.25-.02.09-.02-.42.01-.83.02-1.24.01-.87-.02-1.76-.02-2.61.2-1.51.4-2.76,1.45-3.71,2.66-.98,1.25-1.85,2.59-2.6,3.99-.75,1.42-1.38,2.94-1.61,4.54-.22,1.55-.15,3.11.33,4.61.46,1.45,1.21,2.73,2.14,3.91,1.83,2.33,4.39,3.91,7.15,4.9,3.45,1.24,7.18,1.51,10.82,1.78.89.07,1.74-.83,1.7-1.7-.04-.98-.75-1.63-1.7-1.7-1.48-.11-2.97-.22-4.44-.4-.08-.01-.17-.02-.25-.03-.42-.05.28.04,0,0-.17-.02-.34-.05-.5-.07-.4-.06-.79-.13-1.19-.2-.7-.13-1.4-.29-2.09-.49-.73-.2-1.44-.45-2.15-.73-.08-.03-.3-.09.06.02-.08-.02-.16-.07-.23-.1-.15-.07-.31-.14-.46-.22-.28-.14-.56-.29-.83-.44-.26-.15-.51-.31-.76-.47-.13-.09-.26-.18-.39-.27-.06-.04-.11-.08-.17-.13-.03-.02-.06-.04-.08-.06-.14-.11-.11-.09.09.07-.03-.08-.26-.21-.33-.27-.11-.09-.21-.18-.32-.28-.24-.21-.46-.43-.68-.66-.21-.22-.41-.44-.6-.67-.04-.05-.11-.18-.17-.2.02,0,.25.33.07.1-.1-.14-.21-.28-.3-.42-.33-.48-.62-.99-.87-1.53-.02-.05-.05-.14-.08-.19.22.31.09.23.03.07-.05-.13-.1-.26-.14-.38-.1-.29-.18-.59-.25-.88-.03-.15-.06-.3-.09-.45-.01-.07-.02-.14-.03-.2,0,.03.05.44.02.15-.03-.31-.05-.62-.05-.93,0-.16,0-.31.02-.47,0-.1.02-.2.03-.3,0-.06.05-.33,0-.08-.04.25,0-.01.02-.07.02-.1.04-.2.06-.3.04-.18.08-.36.12-.53.09-.33.19-.66.31-.99.06-.15.12-.3.17-.46.11-.29-.02.02-.03.07.03-.11.1-.23.15-.34.6-1.29,1.35-2.51,2.15-3.68.1-.15.21-.3.32-.45.04-.06.09-.12.13-.18.23-.31-.24.29,0,0,.23-.28.47-.56.73-.82.12-.11.24-.22.36-.33.25-.21.01.06-.05.03.03,0,.19-.14.22-.15.15-.1.3-.19.46-.27.07-.04.27-.08.04-.03-.27.06.03,0,.09-.03.18-.06.37-.1.55-.14.33-.07-.07,0-.08,0,.08-.05.27-.02.37-.03.42-.02.84,0,1.25,0,.92.02,1.89,0,2.76-.34.43-.16.78-.37,1.02-.78.21-.36.3-.9.17-1.31-.26-.81-1.2-1.53-2.09-1.19"/>
          <g class="cls-12">
            <g class="cls-4">
              <path class="cls-20" d="m277.74,216.33c2.56-.98,5.22-1.65,7.94-2.02-.19.03-.38.05-.56.08,3.22-.43,6.48-.42,9.69,0l-.56-.08c2.25.31,4.47.83,6.62,1.56,1.05.36,2.37-.41,2.61-1.48.27-1.18-.36-2.23-1.48-2.61-6.43-2.18-13.43-2.51-20.06-1.12-1.81.38-3.59.91-5.32,1.57-.53.2-.97.47-1.27.98-.27.46-.38,1.13-.21,1.64.33,1.01,1.5,1.91,2.61,1.48"/>
            </g>
          </g>
          <g class="cls-12">
            <g class="cls-67">
              <path class="cls-20" d="m221.15,217.54c1.76-1.06,3.59-1.99,5.47-2.79-.17.07-.34.14-.51.21,3.55-1.49,7.29-2.52,11.1-3.04-.19.03-.38.05-.56.08,2.59-.35,5.27-.56,7.87-.22-.19-.03-.38-.05-.56-.08,1.03.14,2.04.39,3.01.79-.17-.07-.34-.14-.51-.21.35.15.7.32,1.03.52.16.09.31.19.46.3.07.05.16.1.22.16-.09-.07-.17-.13-.26-.2.06.05.12.09.17.14.44.37.91.62,1.5.62.52,0,1.14-.23,1.5-.62.73-.79.91-2.24,0-3.01-1.69-1.43-3.71-2.27-5.89-2.59-2.14-.31-4.27-.29-6.42-.11-4.42.38-8.79,1.35-12.92,2.99-2.37.94-4.67,2.04-6.85,3.36-.95.57-1.39,1.93-.76,2.91.62.96,1.89,1.38,2.91.76"/>
            </g>
          </g>
          <g class="cls-9">
            <g class="cls-65">
              <path class="cls-19" d="m313.37,222.01s.03.06.04.09l-.21-.51c.05.11.08.23.1.35-.03-.19-.05-.38-.08-.56.02.12.02.24,0,.37.03-.19.05-.38.08-.56,0,.06-.02.11-.03.16-.09.28-.1.56-.04.85.01.28.1.55.25.79.13.25.32.45.55.6.21.19.45.31.72.38.19.03.38.05.56.08.38,0,.74-.1,1.07-.29.14-.11.29-.22.43-.33.26-.26.45-.58.55-.94.07-.26.1-.54.12-.81,0-.09,0-.17,0-.26-.03-.25-.05-.55-.12-.8-.01-.04-.03-.08-.04-.13-.08-.2-.16-.42-.26-.61-.13-.25-.32-.45-.55-.6-.21-.19-.45-.31-.72-.38-.28-.09-.56-.1-.85-.04-.28.01-.55.1-.79.25-.14.11-.29.22-.43.33-.26.27-.45.58-.55.94-.03.19-.05.38-.08.56,0,.38.1.74.29,1.07"/>
            </g>
          </g>
          <g class="cls-9">
            <g class="cls-55">
              <path class="cls-19" d="m317.57,225.61c-.72-.14-1.41.15-1.82.77-.34.52-.39,1.19-.38,1.8.02,1.23.32,2.41.82,3.53.18.41.81.53,1.16.3.42-.27.5-.73.31-1.16-.1-.23-.29-.76-.38-1.14-.05-.2-.09-.41-.13-.61,0-.02-.04-.27-.02-.13-.01-.12-.03-.24-.03-.35-.02-.21-.02-.41-.02-.62,0-.11,0-.23.01-.34,0-.18-.03.08.01-.1,0-.04.11-.32.04-.18.02-.05.05-.09.08-.13-.01.02-.03.04-.04.06.07-.07.07-.07,0,0,.04-.03.08-.05.12-.07-.05.04-.1.05-.16.04.1,0,.09,0-.02-.01.43.08.94-.12,1.05-.59.1-.42-.13-.95-.59-1.05"/>
            </g>
          </g>
          <g class="cls-9">
            <g class="cls-2">
              <path class="cls-19" d="m315.44,227.01c.08.26.15.53.21.79.03.14.05.29.08.44.04.21-.02-.19,0,.02,0,.07.02.15.02.22.05.56.04,1.12-.02,1.67-.02.2.11.46.25.6.15.15.39.26.6.25.22,0,.45-.08.6-.25.16-.18.22-.36.25-.6.14-1.2.01-2.45-.35-3.6-.13-.42-.6-.74-1.05-.59-.42.14-.74.59-.59,1.05"/>
            </g>
          </g>
          <g class="cls-9">
            <g class="cls-34">
              <path class="cls-19" d="m315.65,230.08c.25,2.46-.09,4.9-1,7.2-.17.43.18.93.59,1.05.48.13.88-.16,1.05-.59.95-2.42,1.32-5.07,1.06-7.66-.05-.46-.36-.85-.85-.85-.42,0-.9.39-.85.85"/>
            </g>
          </g>
          <g class="cls-9">
            <g class="cls-47">
              <path class="cls-19" d="m314.19,234.87c.06.54.06,1.09,0,1.63,0,.07,0,.15-.02.21,0-.03,0-.07.01-.1,0,.04-.01.08-.02.12-.02.13-.04.26-.07.39-.06.27-.13.54-.21.8-.13.42.16.95.59,1.05.46.11.9-.14,1.05-.59.36-1.13.49-2.34.36-3.52-.02-.23-.08-.43-.25-.6-.15-.15-.39-.26-.6-.25-.42.02-.9.38-.85.85"/>
            </g>
          </g>
          <g class="cls-9">
            <g class="cls-73">
              <path class="cls-19" d="m313.69,238.08c-.01.16-.03.33-.05.49.01-.08.02-.15.03-.23-.07.51-.19,1.02-.36,1.51-.07.2-.02.48.09.66.1.18.31.34.51.39.47.11.89-.14,1.05-.59.24-.72.38-1.47.44-2.23.02-.21-.11-.46-.25-.6-.15-.15-.39-.26-.6-.25-.22,0-.45.08-.6.25-.16.17-.23.37-.25.6"/>
            </g>
          </g>
          <g class="cls-9">
            <g class="cls-45">
              <path class="cls-19" d="m269.23,226.71s.07.05.11.08c.09.06-.13-.11-.04-.03.06.05.12.11.18.16.06.06.12.11.17.18.03.03.06.07.09.1.07.08,0,0-.03-.04.08.14.19.27.27.41.04.08.08.16.12.24.06.12-.03-.05-.02-.05,0,0,.04.12.05.13.05.15.1.31.13.47,0,.04.01.07.02.11.02.11-.02-.19,0-.04,0,.08.01.16.02.24,0,.08,0,.16,0,.25,0,.04,0,.07,0,.11,0,.02-.02.2,0,.05.02-.17-.04.15-.04.15-.01-.02.09-.17.02-.06.06-.11.16-.17.3-.19.24-.05.3-.09.18-.09.27.21.55.42.82.62-.15-.45-.27-.9-.34-1.37,0-.05-.02-.09-.02-.14.02.21,0-.03,0-.05-.01-.11-.02-.21-.03-.32-.02-.25-.02-.49-.01-.74.01-.44-.4-.87-.85-.85-.47.02-.84.37-.85.85-.03,1.04.13,2.09.47,3.07.14.4.42.57.82.62.42.05.82-.26,1.02-.61.15-.28.19-.58.22-.89.05-.48-.01-.98-.14-1.44-.28-.98-.9-1.83-1.75-2.4-.37-.25-.96-.08-1.16.3-.23.43-.09.9.3,1.16"/>
            </g>
          </g>
          <g class="cls-9">
            <g class="cls-27">
              <path class="cls-19" d="m271.35,231.45c.13.44.24.88.32,1.33,0,.06.02.11.03.17-.01-.08,0-.07,0,.03.01.11.02.23.03.34.02.23.03.46.03.68,0,.48-.07.98.07,1.45.16.55.55.99,1.11,1.15.41.12.97-.15,1.05-.59.28-1.63.08-3.23-.58-4.75-.18-.41-.81-.53-1.16-.31-.42.27-.49.72-.3,1.16-.06-.14.03.07.04.1.03.08.06.15.08.23.05.15.1.31.14.47.04.16.08.32.11.48.02.08.03.16.04.24.05.26-.01-.17.01.1.04.33.05.65.04.98,0,.15-.01.3-.02.45,0,.03-.03.26-.02.17,0-.06,0-.04,0,.05,0,.05-.02.11-.03.16.35-.2.7-.4,1.05-.59.1.05.11.06.02,0,.08.07.09.07.02,0,.06.08.07.09.04.04-.03-.05-.02-.04.02.05-.02-.05-.03-.09-.04-.14,0,.1,0,.09,0,0,0-.08,0-.16,0-.24,0-.4.02-.79,0-1.18-.05-.85-.2-1.69-.45-2.5-.13-.42-.6-.74-1.05-.59-.43.14-.73.59-.59,1.05"/>
            </g>
          </g>
          <g class="cls-9">
            <g class="cls-32">
              <path class="cls-19" d="m271.77,236.79c.8,2.05,1.52,4.13,2.17,6.23.14.44.59.72,1.05.59.43-.12.73-.61.59-1.05-.65-2.1-1.38-4.18-2.17-6.23-.17-.43-.57-.72-1.05-.59-.41.11-.76.62-.59,1.05"/>
            </g>
          </g>
          <g class="cls-9">
            <g class="cls-41">
              <path class="cls-19" d="m274.01,243.48c.15.34.3.68.45,1.02.07.17.15.34.22.51.01.03.1.24.04.09.04.09.07.17.11.26.28.67.55,1.35.82,2.03.13.34.42.64.82.62.36-.02.73-.25.82-.62.26-1.14.26-2.31,0-3.45-.1-.43-.62-.73-1.05-.59-.46.15-.7.58-.59,1.05.03.11.05.23.07.34.01.06.02.13.03.19-.01-.09,0-.07,0,0,.02.25.04.49.04.74,0,.23-.01.47-.04.7,0,.02-.02.18,0,.08.02-.11-.02.1-.02.12-.02.13-.05.25-.08.38h1.64c-.56-1.45-1.16-2.89-1.8-4.31-.18-.41-.81-.54-1.16-.31-.42.27-.5.73-.3,1.16"/>
            </g>
          </g>
          <g class="cls-9">
            <g class="cls-78">
              <path class="cls-19" d="m278.81,249.83c.02.12.05.24.07.35.04.19.22.42.39.51.21.11.43.14.65.09.36-.09.65-.34.84-.65.13-.21.2-.46.3-.69-.03.07-.06.14-.09.2.03-.08.07-.15.12-.21l-.13.17c.04-.06.09-.11.14-.15-.06.04-.11.09-.17.13.03-.03.07-.05.11-.07-.07.03-.14.06-.2.09.04-.02.07-.03.12-.03-.08,0-.15.02-.23.03.02,0,.04,0,.06,0-.08-.01-.15-.02-.23-.03.03,0,.06.01.09.02-.07-.03-.14-.06-.2-.09.03.02.06.03.08.05-.06-.04-.11-.09-.17-.13.03.02.05.05.07.07l-.13-.17c.18.24.33.51.48.77.16.27.31.55.45.83.2.4.79.54,1.16.31.41-.26.52-.74.31-1.16-.16-.31-.32-.61-.49-.91-.08-.15-.17-.29-.26-.43-.11-.17-.22-.37-.38-.51-.26-.24-.59-.35-.95-.31-.29.04-.53.16-.74.36-.31.28-.42.64-.57,1.01.03-.07.06-.14.09-.2-.04.09-.09.19-.15.27.04-.06.09-.11.13-.17-.03.04-.06.07-.1.1.06-.04.11-.09.17-.13-.03.02-.06.04-.1.06l.2-.09s-.05.02-.08.03c.35.2.7.4,1.05.59-.02-.12-.05-.24-.07-.35-.04-.2-.22-.41-.39-.51-.18-.11-.45-.15-.66-.09-.46.15-.69.58-.59,1.05"/>
            </g>
          </g>
          <g class="cls-9">
            <g class="cls-64">
              <path class="cls-19" d="m282.85,251.63s.05,0,.08,0c-.08-.01-.15-.02-.23-.03.08.01.16.03.23.06-.07-.03-.14-.06-.2-.09.07.03.13.07.19.11-.06-.04-.11-.09-.17-.13.06.05.11.1.16.16-.04-.06-.09-.11-.13-.17.07.09.13.18.2.26.08.09.17.16.27.23.09.06.19.1.29.13.17.05.37.04.53,0,.23-.06.44-.23.57-.43.11-.17.13-.32.15-.51.02-.23-.07-.43-.16-.63-.06-.13-.15-.25-.25-.35-.09-.11-.22-.2-.34-.27-.12-.08-.26-.13-.4-.19-.08-.03-.16-.06-.24-.08-.25-.07-.52-.1-.78-.12-.15,0-.3.04-.43.12-.13.08-.23.18-.3.3,0,.01-.02.03-.02.04-.04.07-.08.16-.1.24,0,.01,0,.03-.01.04-.02.08-.03.18-.03.26,0,.22.06.4.15.59.01.03.03.06.05.09.06.08.12.17.19.24.07.07.16.13.24.19.03.02.06.04.09.05.09.04.19.09.29.11.08.02.17.03.26.03.02,0,.04,0,.05,0,.22-.01.4-.06.6-.16.09-.05.17-.12.24-.18.03-.02.06-.05.08-.08.13-.15.2-.26.27-.43.13-.31.17-.66.06-.99-.06-.21-.2-.4-.39-.51-.18-.11-.45-.15-.66-.09-.21.07-.4.19-.51.39-.1.2-.15.43-.09.65,0,.03.02.06.02.1-.01-.08-.02-.15-.03-.23,0,.06,0,.12,0,.18l.03-.23c0,.05-.02.11-.04.16.03-.07.06-.14.09-.2-.02.05-.05.1-.08.14l.13-.17s-.06.07-.1.1c.06-.04.11-.09.17-.13-.03.02-.06.04-.09.06.07-.03.14-.06.2-.09-.04.01-.07.02-.11.03.08,0,.15-.02.23-.03-.03,0-.06,0-.09,0,.08.01.15.02.23.03-.04,0-.07-.01-.11-.03.07.03.14.06.2.09-.04-.02-.07-.04-.11-.06.06.04.11.09.17.13-.03-.03-.06-.06-.09-.09l.13.17s-.05-.07-.06-.11c.03.07.06.14.09.2-.01-.03-.02-.07-.03-.1.01.08.02.15.03.23,0-.03,0-.06,0-.09-.01.08-.02.15-.03.23,0-.02,0-.05.02-.07-.03.07-.06.14-.09.2,0-.02.02-.04.03-.06-.24.14-.49.28-.73.42.07,0,.15.01.22.02-.08-.01-.15-.02-.23-.03.2.03.39.07.58.15-.07-.03-.14-.06-.2-.09.08.04.16.08.24.13-.06-.04-.11-.09-.17-.13.05.04.1.09.14.14-.04-.06-.09-.11-.13-.17.03.05.06.09.09.15-.03-.07-.06-.14-.09-.2.02.04.03.08.04.13,0-.08-.02-.15-.03-.23,0,.03,0,.06,0,.09.01-.08.02-.15.03-.23,0,.02,0,.03-.01.05.03-.07.06-.14.09-.2,0,0-.01.02-.02.03.04-.06.09-.11.13-.17,0,0-.01.02-.02.02l.17-.13s-.02.01-.03.02c.07-.03.14-.06.2-.09,0,0-.02,0-.03,0,.08-.01.15-.02.23-.03-.02,0-.03,0-.04,0,.08.01.15.02.23.03-.02,0-.03,0-.04-.01.07.03.14.06.2.09-.02-.01-.04-.02-.06-.04.06.04.11.09.17.13-.05-.04-.1-.1-.14-.15.04.06.09.11.13.17-.08-.11-.16-.23-.26-.32-.1-.09-.21-.18-.34-.25-.26-.14-.52-.21-.81-.22-.21,0-.45.1-.6.25-.15.15-.26.39-.25.6,0,.22.08.45.25.6.17.16.37.24.6.25"/>
            </g>
          </g>
          <g class="cls-9">
            <g class="cls-46">
              <path class="cls-19" d="m284.57,251.08l.4.4c.08.08.17.14.27.18.1.05.21.08.33.07.12,0,.23-.02.33-.07.11-.03.2-.09.27-.18.04-.06.09-.11.13-.17.08-.13.12-.28.12-.43-.01-.08-.02-.15-.03-.23-.04-.14-.11-.27-.22-.38-.13-.13-.27-.27-.4-.4-.08-.08-.17-.14-.27-.18-.1-.05-.21-.08-.33-.07-.12,0-.23.02-.33.07-.11.03-.2.09-.27.18-.04.06-.09.11-.13.17-.08.13-.12.28-.12.43l.03.23c.04.14.11.27.22.38"/>
            </g>
          </g>
          <g class="cls-9">
            <g class="cls-56">
              <path class="cls-19" d="m285.13,251.64c.46.54.98,1.12,1.59,1.49.34.21.73.32,1.12.26.4-.05.7-.27.97-.56.01-.01.13-.14.13-.14,0,0-.12.06-.13.06-.27.07-.15-.02-.09.02-.03-.02.13.07.15.08.28.15.53.33.79.51.55.38,1.1.74,1.75.93.44.13.93-.16,1.05-.59.12-.45-.15-.92-.59-1.05-.27-.08-.4-.14-.68-.31-.24-.15-.47-.31-.7-.47-.55-.38-1.21-.87-1.92-.79-.36.04-.66.22-.91.49-.04.05-.09.09-.13.14-.06.08-.06.03,0,.02.03,0,.12,0,.15-.02.07-.02-.11-.05-.02,0-.15-.08-.13-.07-.24-.17-.12-.1-.24-.21-.35-.32-.26-.25-.5-.51-.73-.78-.3-.35-.9-.31-1.2,0-.35.35-.3.85,0,1.2"/>
            </g>
          </g>
          <g class="cls-9">
            <g class="cls-11">
              <path class="cls-19" d="m295.54,252.12c.27.55.74.98,1.25,1.3.27.17.56.3.86.42.24.1.49.2.74.25.51.1,1.02.02,1.41-.35.41-.39.45-1.01.19-1.49-.31-.58-1-.95-1.62-1.09-.63-.14-1.27-.12-1.91-.07-.23.02-.43.08-.6.25-.15.15-.26.39-.25.6.02.43.38.89.85.85.48-.04.96-.07,1.44,0-.08-.01-.15-.02-.23-.03.13.02.25.04.37.08.06.02.13.04.19.06.11.04-.06-.03-.08-.04.03,0,.07.03.1.05.05.03.1.06.15.09.01,0,.09.05.09.06,0,0-.16-.13-.07-.05.04.04.09.09.13.13-.08-.11-.1-.13-.06-.08.02.04.02.03-.01-.04-.05-.14,0,0,0,.03,0-.08-.02-.15-.03-.23,0,.03,0,.06,0,.09.01-.08.02-.15.03-.23-.02.14.09-.14.04-.06-.02.04-.01.02.03-.04.03-.06.08-.1.15-.13-.11.06.08-.03.09-.03,0,0-.12.03-.13.03.08-.01.15-.02.23-.03-.08,0-.15,0-.22,0,.08.01.15.02.23.03-.25-.04-.48-.14-.71-.23-.14-.05.2.09,0,0-.06-.03-.11-.05-.17-.08-.1-.05-.2-.11-.3-.17-.1-.06-.19-.13-.28-.19.22.14.05.04,0,0-.04-.03-.08-.07-.11-.11-.04-.04-.07-.07-.11-.11-.15-.17.08.12,0,0-.07-.1-.13-.2-.18-.31-.2-.4-.79-.54-1.16-.31-.41.26-.52.74-.3,1.16"/>
            </g>
          </g>
          <g class="cls-9">
            <g class="cls-6">
              <path class="cls-19" d="m300.24,253.79c.98.75,2.26.85,3.44.68,1.27-.19,2.44-.78,3.67-1.11.56-.15,1.13-.24,1.65-.52.67-.36,1.25-1.18.69-1.9-.49-.62-1.43-.6-2.06-.21-.49.3-.83.75-1.34,1.02-1.01.53-2.27.53-3.41.54-1.09.01-1.1,1.71,0,1.7,1.09-.01,2.23-.05,3.28-.37.51-.16,1.01-.38,1.45-.69.24-.17.46-.36.67-.56.08-.07.19-.14.26-.21.02-.04.05-.05.11-.03-.13.02-.24-.03-.31-.16-.04-.14-.08-.29-.12-.43,0,.04,0,.07,0,.11.04-.14.08-.29.12-.43-.16.34-1.09.41-1.49.52-.75.21-1.46.5-2.2.74-1.19.39-2.5.64-3.54-.16-.37-.28-.95-.06-1.16.3-.26.44-.06.88.3,1.16"/>
            </g>
          </g>
          <g class="cls-9">
            <g class="cls-35">
              <path class="cls-19" d="m311.31,250.62c.46-.45.63-1.07.79-1.68.16-.62.33-1.25.49-1.87h-1.64c.04.12.07.24.09.36,0,.05.02.1.03.16-.05-.25-.01-.08,0-.02.02.24.01.47-.01.71,0,.07,0,.03.01-.1,0,.03-.01.07-.02.1,0,.05-.02.1-.03.15-.03.11-.06.22-.09.33-.02.06-.04.12-.06.17-.06.15.08-.17,0,0-.05.11-.11.22-.17.33-.23.38-.1.95.3,1.16.41.22.92.1,1.16-.3.61-1.05.78-2.34.43-3.5-.1-.35-.44-.64-.82-.62-.37.02-.72.25-.82.62l-.46,1.75c-.07.25-.12.5-.21.74-.02.05-.05.11-.06.16.06-.22.03-.08,0,0-.02.04-.08.1-.09.14.09-.11.1-.13.04-.06-.02.02-.04.05-.07.07-.32.31-.34.89,0,1.2.34.31.86.33,1.2,0"/>
            </g>
          </g>
          <g class="cls-9">
            <g class="cls-79">
              <path class="cls-19" d="m261.87,226.91c-.32-.12.04-.01.04.04,0,.02-.15-.13-.1-.07.01.01.03.03.04.04.03.03.06.07.09.1.06.06-.09-.1-.07-.1,0,0,.03.04.03.05.02.03.04.07.06.1,0,0,.03.05.03.05,0,.02-.07-.2-.05-.11,0,.04.03.09.04.13,0,.02,0,.04.01.06.03.07-.03-.13-.02-.13,0,0,0,.1,0,.12,0,0,0,.12,0,.12-.01,0,.04-.2.02-.13,0,.02-.01.05-.02.07,0,.04-.06.17,0,.03.06-.15,0,0-.03.04-.02.03-.12.17-.04.07.08-.1-.05.05-.07.08-.16.19-.33.37-.5.55-.09.1-.18.19-.26.29-.04.04-.07.08-.11.12-.02.02-.04.03-.05.05-.03.03-.02.02.03-.02.03-.03.07-.05.11-.06.02,0,.04-.02.06-.03.16.02.32.04.48.06,0,0,.13.12.08.06-.02-.03-.13-.15-.05-.04.08.12-.01-.02-.03-.05-.02-.02-.09-.12-.08-.15,0-.01.07.18.04.09,0-.02-.02-.04-.02-.07-.01-.05-.02-.09-.04-.14-.04-.14,0,.19,0,.04,0-.06,0-.11,0-.17,0-.19-.04.14,0,.02.01-.05.03-.1.04-.15.02-.09-.04.11-.04.1,0-.01.03-.07.04-.08.02-.05.06-.09.08-.14.04-.08-.07.1-.07.08,0-.02.05-.06.06-.07.04-.04.08-.07.11-.11.06-.07-.09.08-.08.06,0-.02.06-.04.08-.05.05-.03.11-.06.16-.09.4-.19.54-.8.3-1.16-.27-.41-.73-.51-1.16-.3-.64.31-1.1.97-1.19,1.67-.05.35-.03.7.1,1.03.15.4.39.82.77,1.05.51.31,1.1.16,1.49-.25.23-.24.44-.49.67-.74.23-.26.49-.52.64-.83.14-.3.23-.64.19-.98-.04-.37-.14-.73-.36-1.03-.26-.36-.58-.6-.99-.76-.19-.07-.48-.02-.66.09-.18.1-.34.31-.39.51-.11.48.15.88.59,1.05"/>
            </g>
          </g>
          <g class="cls-9">
            <g class="cls-40">
              <path class="cls-19" d="m260.91,231.36c0,.07,0,.13,0,.2,0,.03,0,.07,0,.1.02-.14.02-.17,0-.08-.03.13-.06.26-.1.39-.02.06-.05.13-.07.19-.01.03-.03.06-.04.1.05-.12.06-.14.02-.06-.05.11-.1.22-.15.33-.28.6-.54,1.18-.6,1.85,0,.06,0,.12,0,.18,0,.03,0,.06,0,.1.48-.69.88-.81,1.2-.36.05.12.06.14.03.05-.02-.09-.01-.07,0,.07,0-.07-.02-.14-.02-.2-.03-.27-.05-.54-.04-.81,0-.06,0-.12,0-.18,0-.03,0-.07,0-.1.01-.09,0-.07,0,.07.05-.11.05-.27.09-.39.01-.03.02-.06.03-.09-.06.13-.06.15-.03.07.03-.06.06-.12.09-.17.02-.03.04-.05.05-.08-.08.11-.1.12-.04.06.02-.03.04-.05.07-.07.15-.14.02-.09-.4.14-.14-.04-.29-.08-.43-.12-.2-.25-.26-.31-.19-.18,0,.02.02.03.02.05-.05-.12-.06-.14-.02-.05,0,.02.01.03.02.05.04.1.06.21.09.31,0,.05,0,.12.03.16-.02-.14-.02-.16-.01-.06,0,.02,0,.04,0,.05,0,.12,0,.23,0,.35,0,.03-.01.23,0,.08,0-.15,0,.04-.02.07-.02.11-.05.21-.09.31,0,.03-.02.05-.03.08-.03.07-.03.07,0,0,.03-.07.03-.07,0,0-.01.02-.02.05-.04.07-.05.1-.12.2-.18.3-.26.36-.08.96.3,1.16.44.23.89.08,1.16-.3.56-.79.71-1.83.5-2.77-.05-.23-.14-.45-.24-.66-.21-.45-.7-.7-1.19-.55-.55.17-.89.78-1.08,1.29-.15.39-.19.83-.19,1.25,0,.19.01.38.03.58.02.25.04.51.1.75.1.39.42.74.83.83.53.11,1.06-.17,1.22-.71.04-.13.05-.28.05-.41,0-.08.02-.17.01-.25.02.21-.02.12,0,.03.01-.05.02-.1.04-.15.03-.1.06-.19.09-.29.01-.03.02-.06.04-.1.01-.03.03-.06.04-.1-.05.12-.06.14-.02.06.04-.09.09-.19.13-.28.11-.24.22-.48.32-.72.18-.44.31-.92.29-1.4-.01-.44-.38-.87-.85-.85-.45.02-.86.37-.85.85"/>
            </g>
          </g>
          <g class="cls-9">
            <g class="cls-25">
              <path class="cls-19" d="m258.88,236.48c-.19.67-.42,1.33-.69,1.98.03-.07.06-.14.09-.2-.12.27-.24.54-.37.81-.1.21-.15.43-.09.66.05.2.21.41.39.51.38.2.96.12,1.16-.3.47-.96.85-1.96,1.14-2.99.12-.43-.15-.94-.59-1.05-.45-.1-.92.14-1.05.59"/>
            </g>
          </g>
          <g class="cls-9">
            <g class="cls-39">
              <path class="cls-19" d="m259.01,238.1c-.12.71-.3,1.4-.55,2.08-.04.09-.07.18-.11.28.07-.17-.02.03-.03.07-.08.18-.17.36-.26.54-.08.15-.16.31-.25.46-.08.13-.15.33-.26.43.15-.25.42-.31.8-.17.05.03.09.07.12.12.04.06.04.06,0,0-.04-.08-.04-.07.01.05-.04-.03-.06-.23-.07-.28-.02-.08-.03-.15-.05-.23-.02-.1-.02-.1,0,0,0-.05-.01-.1-.02-.16,0-.09-.01-.18-.02-.27,0-.09,0-.18,0-.27,0-.04,0-.09,0-.13,0,.07-.01.12-.05.18-.09.14,0,0,.04-.04.07-.06.14-.12.21-.19.12-.11.22-.23.32-.36.28-.36.48-.73.65-1.15.16-.41-.18-.95-.59-1.05-.49-.11-.87.15-1.05.59.06-.15,0,.02-.04.08-.03.06-.06.12-.1.18-.04.07-.09.14-.13.2,0,.01-.07.11-.01.02.06-.08-.03.03-.04.05-.24.28-.57.49-.74.83-.19.39-.2.83-.16,1.25.03.39.08.8.2,1.18.14.45.44.84.9.99.58.19,1.06-.2,1.35-.66.38-.61.69-1.26.95-1.92.28-.71.48-1.46.61-2.22.07-.44-.11-.94-.59-1.05-.41-.09-.97.12-1.05.59"/>
            </g>
          </g>
          <g class="cls-9">
            <g class="cls-54">
              <path class="cls-19" d="m256.87,242.64c-.11.51-.27,1.01-.48,1.5.03-.07.06-.14.09-.2-.05.12-.1.25-.18.36l.13-.17s-.04.05-.07.08c.06-.04.11-.09.17-.13-.03.02-.06.04-.09.05.07-.03.14-.06.2-.09-.02,0-.04.01-.06.02.08,0,.15-.02.23-.03-.02,0-.04,0-.06,0,.08,0,.15.02.23.03-.03,0-.06-.01-.09-.02.07.03.14.06.2.09-.03-.02-.05-.03-.08-.05.06.04.11.09.17.13-.02-.02-.05-.04-.07-.07.04.06.09.11.13.17-.03-.04-.05-.07-.07-.12.03.07.06.14.09.2-.01-.03-.02-.06-.03-.1l.03.23s0-.09,0-.14c-.01.08-.02.15-.03.23,0-.05.02-.1.04-.15-.03.07-.06.14-.09.2.04-.09.09-.16.15-.24l-.13.17c.23-.28.5-.54.75-.8.27-.28.54-.56.8-.84.31-.32.34-.89,0-1.2-.33-.31-.87-.34-1.2,0-.33.34-.65.68-.98,1.01-.37.38-.79.75-.96,1.27-.23.67.17,1.46.86,1.65.39.11.86-.03,1.13-.34.21-.25.31-.51.43-.81.19-.46.34-.94.45-1.43.1-.43-.13-.94-.59-1.05-.43-.1-.94.13-1.05.59"/>
            </g>
          </g>
          <g class="cls-9">
            <g class="cls-31">
              <path class="cls-19" d="m257.45,244.09c-.05.25-.11.51-.16.76-.03.12-.05.24-.08.37-.02.11-.04.23-.08.34.03-.07.06-.14.09-.2-.01.03-.03.06-.05.08.04-.06.09-.11.13-.17-.01.02-.03.03-.05.05.06-.04.11-.09.17-.13-.02.01-.03.02-.05.03.07-.03.14-.06.2-.09-.02,0-.04.01-.06.02.08-.01.15-.02.23-.03-.02,0-.04,0-.06,0,.08.01.15.02.23.03-.02,0-.04,0-.05-.01.07.03.14.06.2.09-.01,0-.02-.01-.03-.02.06.04.11.09.17.13,0,0-.02-.02-.03-.03-.13-.16-.41-.25-.6-.25-.21,0-.46.09-.6.25-.15.16-.26.37-.25.6l.03.23c.04.14.11.27.22.38.06.07.15.13.23.18.14.08.32.13.48.13.2,0,.41-.05.58-.16.32-.2.48-.53.56-.88.09-.41.17-.83.26-1.24.05-.22.03-.45-.09-.66-.1-.18-.31-.34-.51-.39-.22-.05-.46-.04-.65.09-.18.12-.35.29-.39.51"/>
            </g>
          </g>
          <g class="cls-9">
            <g class="cls-10">
              <path class="cls-19" d="m258.3,243.74s0-.02,0-.02c0,.08-.02.15-.03.23,0-.01,0-.03.01-.04-.03.07-.06.14-.09.2,0-.01.01-.03.02-.04-.04.06-.09.11-.13.17,0-.01.02-.02.03-.03-.06.04-.11.09-.17.13.01,0,.03-.02.04-.02-.07.03-.14.06-.2.09.02,0,.04-.02.07-.02-.08.01-.15.02-.23.03.03,0,.06,0,.1,0-.08-.01-.15-.02-.23-.03.03,0,.05.01.07.02-.07-.03-.14-.06-.2-.09.02.01.04.02.06.04-.06-.04-.11-.09-.17-.13.01.01.03.03.04.04-.04-.06-.09-.11-.13-.17.02.03.04.06.05.09-.03-.07-.06-.14-.09-.2.02.04.03.09.03.13-.01-.08-.02-.15-.03-.23,0,.1,0,.19-.01.29,0-.08.02-.15.03-.23-.05.37-.15.72-.29,1.07.03-.07.06-.14.09-.2-.11.27-.25.52-.41.76-.12.18-.14.46-.09.66.05.2.21.41.39.51.43.23.9.09,1.16-.3.46-.68.72-1.46.82-2.27.07-.58-.21-1.22-.81-1.4-.29-.08-.61-.06-.88.09-.34.19-.5.51-.53.89-.02.21.11.46.25.6.15.15.39.26.6.25.22,0,.45-.08.6-.25.16-.17.23-.37.25-.6"/>
            </g>
          </g>
          <g class="cls-9">
            <g class="cls-70">
              <path class="cls-19" d="m256.26,246.01c-.06.26-.14.52-.22.77-.04.13-.09.25-.14.38-.01.03-.02.06-.04.09.05-.13.06-.15.03-.06-.02.05-.05.11-.07.16-.22.48-.49.93-.8,1.36-.12.17-.14.46-.09.66.05.2.21.41.39.51.2.1.44.16.66.09.22-.07.37-.2.51-.39.67-.92,1.16-1.99,1.42-3.1.1-.43-.14-.94-.59-1.05-.44-.1-.94.13-1.05.59"/>
            </g>
          </g>
          <g class="cls-9">
            <g class="cls-61">
              <path class="cls-19" d="m255.4,248.11c.08.13,0-.05.05.09,0,0,.03.14.02.05-.02-.09,0,.04,0,.05,0,.05-.03.24,0,.11-.02.11-.05.22-.1.33.04-.1-.05.09-.07.12-.04.08-.09.16-.14.23-.1.16-.21.32-.31.48-.05.07-.1.14-.15.21-.06.08-.01.01,0,0-.03.03-.05.07-.08.1-.06.06-.12.13-.18.18-.03.03-.06.06-.1.08.07-.05-.02.01-.05.02-.37.22-.65.32-1.04.48-.4.17-.81.34-1.21.51-.21.09-.42.18-.63.26-.09.04-.19.07-.27.11-.19.11-.31-.22.25.38.33.12.42.27.28.45-.01.05-.04.09-.08.12,0,.05-.02,0,.05-.02-.01,0-.13.04,0,0,.09-.02.18-.06.28-.09.2-.06.4-.12.61-.17.44-.1.68-.13,1.12-.16.5-.03,1.03-.04,1.46-.34.54-.38.8-.96.67-1.61-.09-.44-.63-.73-1.05-.59-.46.15-.69.58-.59,1.05-.03-.13.02-.17.06-.28,0,0-.06.11-.03.03.01-.04.14-.04.03-.02-.03,0-.3.06-.18.05-.14.01-.28.01-.42.02-.53.03-1.06.1-1.57.23-.52.12-1.13.27-1.55.62-.52.43-.58,1.25-.09,1.73.54.53,1.23.21,1.81-.03.5-.21,1-.42,1.5-.63.48-.2,1-.37,1.45-.65.45-.28.79-.67,1.09-1.1.67-.95,1.31-2.16.62-3.28-.23-.38-.77-.56-1.16-.31-.38.24-.56.76-.3,1.16"/>
            </g>
          </g>
          <g class="cls-9">
            <g class="cls-43">
              <path class="cls-19" d="m252.73,250.9s-.26.21-.11.09c-.08.06-.16.11-.24.17-.14.09-.29.18-.43.26-.06.03-.13.07-.19.1-.04.02-.09.04-.13.06.09-.04.09-.04,0,0-.16.06-.32.11-.48.16-.16.04-.33.08-.49.11-.1.02-.1.02.02,0-.04,0-.08,0-.12.01-.08,0-.16,0-.25,0-.06,0-.12,0-.18,0-.1,0-.08,0,.04,0-.04,0-.08-.01-.12-.02-.06-.01-.12-.03-.17-.05-.09-.03-.07-.03.04.02-.03-.02-.07-.03-.1-.05-.03-.02-.07-.04-.1-.06.09.07.11.08.06.04-.03-.04-.17-.21-.04-.03-.04-.08-.04-.06.02.06-.01-.03-.02-.07-.03-.1.01.13.02.16.02.09,0-.07,0-.04-.02.1.03-.09.02-.06-.03.07-.1.17-.25.26-.45.27.1,0,.1,0-.01-.01.03,0,.07.01.1.02.17.03.32.09.48.15.21.08-.16-.07.05.02.08.04.17.07.25.11.19.09.38.17.58.25.36.14.74.22,1.13.22.44,0,.87-.39.85-.85-.02-.46-.37-.85-.85-.85-.04,0-.26-.01-.15,0,.11.01-.1-.02-.14-.04-.15-.04-.3-.1-.44-.15.19.07-.03-.02-.08-.04-.07-.03-.14-.07-.22-.1-.2-.09-.4-.18-.61-.25-.39-.14-.85-.23-1.26-.12-.53.14-.87.66-.87,1.19-.01.85.67,1.48,1.43,1.71.69.2,1.47.11,2.15-.08.86-.24,1.63-.68,2.3-1.26.34-.29.32-.91,0-1.2-.36-.33-.84-.31-1.2,0"/>
            </g>
          </g>
          <g class="cls-9">
            <g class="cls-1">
              <path class="cls-19" d="m250.73,250.75c-2.26.79-4.55,1.46-6.88,2.01-1.06.25-.61,1.89.45,1.64,2.33-.55,4.63-1.22,6.88-2.01.43-.15.72-.58.59-1.05-.12-.42-.61-.75-1.05-.59"/>
            </g>
          </g>
          <g class="cls-9">
            <g class="cls-26">
              <path class="cls-19" d="m244.48,252.82s.06-.03.09-.05c-.07.03-.14.06-.2.09.1-.04.21-.07.32-.09-.08,0-.15.02-.23.03.13-.02.27-.01.4,0-.08-.01-.15-.02-.23-.03.23.03.46.11.68.2-.07-.03-.14-.06-.2-.09.2.08.39.18.58.28.2.11.43.15.66.09.2-.05.41-.21.51-.39.21-.4.11-.94-.3-1.16-.4-.22-.83-.43-1.27-.53-.57-.13-1.13-.09-1.66.18-.39.21-.55.79-.31,1.16.26.4.74.53,1.16.3"/>
            </g>
          </g>
          <g class="cls-9">
            <g class="cls-7">
              <path class="cls-19" d="m245.98,251.36c-.34.1-.69.18-1.04.25-.17.04-.35.07-.53.1-.09.02-.19.03-.28.04-.19.03.1-.01-.1.01-.71.09-1.42.12-2.13.11-.44,0-.87.4-.85.85.02.47.37.84.85.85,1.53.03,3.06-.17,4.53-.58.43-.12.74-.61.59-1.05-.14-.44-.59-.72-1.05-.59"/>
            </g>
          </g>
          <g class="cls-9">
            <g class="cls-52">
              <path class="cls-19" d="m239.1,251.62c-.48.03-.97.01-1.44-.05.08,0,.15.02.23.03-.05,0-.1-.01-.16-.02-.11-.04-.23-.04-.34-.02-.11,0-.22.04-.32.1-.18.1-.34.31-.39.51-.05.22-.04.46.09.66.11.17.29.36.51.39.61.09,1.21.14,1.83.1.23-.01.44-.09.6-.25.15-.15.26-.39.25-.6,0-.22-.08-.45-.25-.6-.16-.15-.38-.26-.6-.25"/>
            </g>
          </g>
          <g class="cls-9">
            <g class="cls-76">
              <path class="cls-19" d="m236.01,252.93c.46.2.92.31,1.43.29.44,0,.87-.09,1.3-.16.08-.01.16-.03.24-.04-.23.01.07,0,.11-.01.18-.02.37-.02.55-.02.05,0,.09,0,.13,0-.11-.02-.12-.02-.03,0,.09.02.17.04.26.06.04.01.08.03.12.04-.1-.04-.11-.04-.03,0,.07.05.15.09.22.15-.1-.39-.2-.78-.3-1.16-.05.08-.05.07.02-.02-.03.03-.06.06-.09.09-.03.03-.06.06-.09.08.09-.07.09-.08.02-.02-.04.02-.07.04-.11.06.11-.04.12-.05.03-.02-.04.01-.08.02-.12.03.12-.01.13-.01.04,0-.04,0-.09,0-.13,0-.1,0-.09,0,.03,0-.04,0-.09-.02-.13-.03-.09-.03-.08-.03.02.01-.05,0-.26-.19-.11-.05-.07-.06-.13-.12-.18-.19-.28-.35-.91-.31-1.2,0-.34.37-.3.83,0,1.2.41.51,1.12.81,1.77.75.72-.06,1.33-.44,1.72-1.04.27-.42.05-.89-.3-1.16-.65-.5-1.54-.55-2.33-.45-.23.03-.46.06-.68.1-.1.02-.2.03-.3.05.2-.03-.11.01-.15.02-.2.02-.39.01-.59.01-.1,0-.1,0,0,0-.05,0-.1-.02-.14-.03-.04,0-.32-.11-.14-.03-.41-.18-.93-.13-1.16.3-.19.37-.13.97.3,1.16"/>
            </g>
          </g>
          <g class="cls-9">
            <g class="cls-51">
              <path class="cls-19" d="m212.35,222.36c-.45.7-.41,1.58-.19,2.36.21.78.54,1.54.89,2.27.14.3.54.45.85.41.36-.05.57-.29.71-.61.4-.96.12-2.1-.55-2.86-.3-.33-.9-.32-1.2,0-.33.36-.32.85,0,1.2.02.03.05.06.07.08-.13-.11-.06-.08-.02-.01.04.06.07.13.11.19.05.09-.06-.17-.01-.02.01.04.02.07.03.11.02.08.04.16.06.24.02.11,0-.17-.01-.06,0,.04,0,.07,0,.11,0,.08-.02.17-.01.25,0-.04.03-.18,0-.06,0,.04-.02.07-.02.11-.02.09-.05.18-.09.26.52-.07,1.04-.14,1.55-.2-.08-.16-.15-.32-.22-.49-.01-.03-.03-.07-.04-.1.04.09.04.1,0,0-.04-.09-.07-.18-.11-.26-.12-.3-.23-.6-.32-.91-.04-.14-.08-.27-.1-.41,0-.04-.02-.08-.02-.12-.01-.1-.01-.08,0,.05-.02-.02-.01-.15-.01-.18,0-.08,0-.16,0-.23,0-.18-.05.16,0,0,.01-.04.03-.2.07-.22-.05.11-.05.13-.01.05.02-.03.04-.07.06-.1.24-.37.09-.96-.3-1.16-.42-.22-.9-.09-1.16.3"/>
            </g>
          </g>
          <g class="cls-9">
            <g class="cls-77">
              <path class="cls-19" d="m211.8,226.01c-.31,1.79.2,3.62,1.44,4.96.3.33.9.33,1.2,0,.32-.35.32-.85,0-1.2-.06-.06-.12-.13-.17-.19-.02-.03-.07-.07-.08-.1.02.05.08.1.02.02-.1-.14-.19-.28-.28-.43-.04-.07-.08-.15-.12-.23-.03-.05-.12-.18-.11-.23,0,.04.05.14.01.02-.02-.04-.03-.08-.05-.12-.03-.09-.06-.18-.09-.28-.05-.17-.09-.33-.12-.5,0-.04-.01-.09-.02-.13-.02-.12.02.16,0,.03,0-.09-.02-.17-.02-.26-.01-.17-.01-.35,0-.52,0-.09.01-.17.02-.26,0-.02.02-.17,0-.05-.02.13.01-.07.02-.08.08-.44-.12-.94-.59-1.05-.41-.09-.96.13-1.05.59"/>
            </g>
          </g>
          <g class="cls-9">
            <g class="cls-49">
              <path class="cls-19" d="m214.91,230.24v-.24c0-.12-.02-.23-.07-.33-.03-.11-.09-.2-.18-.27-.08-.08-.17-.14-.27-.18-.1-.05-.21-.08-.33-.07-.08.01-.15.02-.23.03-.14.04-.27.11-.37.22-.04.06-.09.11-.13.17-.08.13-.12.28-.12.43v.24c0,.12.02.23.07.33.03.11.09.2.18.27.08.08.17.14.27.18.1.05.21.08.33.07.08-.01.15-.02.23-.03.14-.04.27-.11.38-.22.04-.06.09-.11.13-.17.08-.13.12-.28.12-.43"/>
            </g>
          </g>
          <g class="cls-9">
            <g class="cls-75">
              <path class="cls-19" d="m213.74,228.45c1.09,0,1.1-1.7,0-1.7s-1.1,1.7,0,1.7"/>
            </g>
          </g>
          <g class="cls-9">
            <g class="cls-58">
              <path class="cls-19" d="m213.22,232.37c.27,1.36.74,2.67,1.37,3.9.2.4.79.54,1.16.3.4-.26.52-.74.3-1.16-.14-.28-.28-.57-.41-.86-.04-.09-.04-.08,0,.02-.02-.04-.03-.08-.05-.13-.03-.06-.05-.13-.07-.19-.06-.16-.12-.32-.17-.48-.21-.61-.38-1.23-.5-1.86-.09-.44-.63-.73-1.05-.59-.46.15-.69.58-.59,1.05"/>
            </g>
          </g>
          <g class="cls-9">
            <g class="cls-63">
              <path class="cls-19" d="m215.42,235.25c1.09,0,1.1-1.7,0-1.7s-1.1,1.7,0,1.7"/>
            </g>
          </g>
          <g class="cls-9">
            <g class="cls-74">
              <path class="cls-19" d="m213.92,233.99c.26,1.01.52,2.02.78,3.02.11.43.61.73,1.05.59.44-.14.71-.58.59-1.05-.26-1.01-.52-2.02-.78-3.02-.11-.43-.61-.73-1.05-.59-.44.14-.71.58-.59,1.05"/>
            </g>
          </g>
          <g class="cls-9">
            <g class="cls-36">
              <path class="cls-19" d="m214.57,237.52c.08,1.25.22,2.54,1.11,3.51.4.43.91.67,1.45.89.06.03.25.14.32.13-.03-.01-.06-.02-.09-.04.04.02.08.03.11.05.05.02.09.04.14.07.04.02.25.18.29.17-.08-.07-.1-.08-.05-.04.02.02.05.04.07.06.04.04.08.09.12.13.28.32.8.31,1.12.07.34-.26.42-.72.22-1.1-.65-1.25-1.38-2.45-2.18-3.61-.25-.36-.76-.57-1.16-.3-.36.23-.58.77-.3,1.16.8,1.16,1.53,2.36,2.18,3.61.45-.34.89-.69,1.33-1.03-.36-.41-.84-.64-1.34-.84-.1-.04-.19-.08-.29-.12-.02,0-.19-.08-.07-.03.12.05-.05-.02-.07-.03-.09-.04-.19-.09-.27-.14-.05-.03-.1-.07-.15-.1.09.06.05.04-.01-.02-.04-.04-.08-.08-.12-.12-.02-.02-.14-.16-.07-.07.08.09-.04-.06-.05-.08-.03-.05-.06-.1-.09-.14-.03-.05-.06-.1-.08-.15-.01-.03-.1-.24-.03-.05-.04-.11-.08-.21-.11-.32-.04-.13-.07-.26-.09-.39-.01-.07-.02-.13-.03-.2,0-.06,0-.05,0,.03,0-.03,0-.05,0-.08-.03-.29-.05-.59-.07-.88-.03-.44-.37-.87-.85-.85-.44.02-.88.37-.85.85"/>
            </g>
          </g>
          <g class="cls-9">
            <g class="cls-69">
              <path class="cls-19" d="m216.7,240.17c.33.65.82,1.2,1.27,1.77.4.49.72,1.05.94,1.65.47,1.28.58,2.65.63,4,.48-.2.97-.4,1.45-.6-.43-.37-.78-.78-1.07-1.27-.55-.95-2.02-.09-1.47.86.35.61.8,1.16,1.33,1.61.52.45,1.48.19,1.45-.6-.06-1.5-.18-3.04-.69-4.45-.26-.71-.6-1.38-1.06-1.99-.46-.6-.98-1.15-1.32-1.83-.21-.41-.79-.53-1.16-.31-.42.24-.51.75-.3,1.16"/>
            </g>
          </g>
          <g class="cls-9">
            <g class="cls-5">
              <path class="cls-19" d="m218.99,245.38c1.26.96,2.28,2.23,3.01,3.63.38.74.72,1.52,1.32,2.12.67.68,1.57,1.04,2.51,1.09.46.03.85-.41.85-.85,0-.48-.39-.82-.85-.85-1.56-.09-2.01-1.8-2.69-2.96-.85-1.43-1.97-2.65-3.3-3.66-.37-.28-.95-.06-1.16.3-.26.44-.06.88.3,1.16"/>
            </g>
          </g>
          <g class="cls-9">
            <g class="cls-42">
              <path class="cls-19" d="m230.55,251.75c-.66-.73-1.32-1.46-1.98-2.19-.3-.33-.9-.33-1.2,0-.32.35-.32.85,0,1.2.66.73,1.32,1.46,1.98,2.19.3.33.9.33,1.2,0,.32-.35.32-.85,0-1.2"/>
            </g>
          </g>
          <g class="cls-9">
            <g class="cls-53">
              <path class="cls-19" d="m223.9,248.36c.8.43,1.6.87,2.39,1.3.72.39,1.45.79,2.09,1.32,1.33,1.1,2.63,2.39,4.48,2.39,1.09,0,1.1-1.7,0-1.7-1.52,0-2.64-1.42-3.76-2.27-1.32-1.01-2.89-1.72-4.35-2.51-.96-.52-1.82.94-.86,1.47"/>
            </g>
          </g>
          <path class="cls-13" d="m420.68,213.04s0,0,0,0,0,0,0,0"/>
          <path class="cls-13" d="m294.01,230.08c.19.26.16.65.13.95-.02.32-.09.63-.19.94-.2.62-.52,1.19-.89,1.72-.08.11.11.22.18.11.41-.58.75-1.21.95-1.9.09-.33.15-.66.17-1,.01-.31.02-.67-.17-.93-.08-.11-.26,0-.18.11"/>
          <path class="cls-13" d="m291.33,234.82c.26.03.53-.02.77-.13.05-.03.07-.1.04-.15-.03-.05-.09-.06-.15-.04-.2.1-.43.14-.66.11-.06,0-.11.05-.11.11,0,.06.05.1.11.11"/>
          <path class="cls-13" d="m242.13,228.23c.37-.08.72.12,1.01.33.15.11.33.22.42.4.09.18.12.4.15.59.13.74.04,1.56-.54,2.09-.1.09.05.24.15.15.68-.62.74-1.59.56-2.44-.04-.21-.08-.44-.21-.61-.12-.16-.3-.27-.46-.39-.34-.24-.73-.42-1.15-.34-.13.03-.08.23.06.2"/>
          <path class="cls-13" d="m241.84,232.58c.14,0,.14-.21,0-.21s-.14.21,0,.21"/>
        </g>
      </g>
    </g>
    <text/>
    <text class="cls-57" transform="translate(53.96 489.63)"><tspan x="0" y="0">5</tspan><tspan class="cls-71" x="8.29" y="0">2</tspan><tspan x="20.6" y="0">歳の父。週末は仕事がなくてもサッカーのコーチ</tspan><tspan x="0" y="31">のために朝早く家を出るほどのサッカー好き</tspan><tspan class="cls-60" x="354.33" y="31">。</tspan><tspan x="0" y="62.01">まじめな性格のせいで家族とけんかになることも</tspan><tspan x="0" y="93.01">しばしば。基本良い父</tspan><tspan class="cls-60" x="177.16" y="93.01">。</tspan></text>
  </g>
</svg>