<?xml version="1.0" encoding="UTF-8"?>
<svg id="_レイヤー_2" data-name="レイヤー 2" xmlns="http://www.w3.org/2000/svg" viewBox="0 0 559.76 660.16">
  <defs>
    <style>
      .cls-1, .cls-2 {
        stroke-width: 0px;
      }

      .cls-2 {
        fill: #fff;
      }
    </style>
  </defs>
  <g id="layor1">
    <g>
      <path class="cls-1" d="m125.62,526.28c3.45,1.03,6.6,2.49,9.87,2.86,6.31.69,9.05,4.75,10.9,10.04,2.82,8.04,5.55,16.12,8.53,24.1,4.03,10.78,8.08,21.56,12.45,32.21,4.18,10.17,8.47,20.33,13.28,30.21,3.97,8.16,8.73,15.94,13.25,23.84.73,1.28.89,2.1-.32,3.05-1.88,1.47-3.94,2.44-6,.76-1.44-1.18-2.77-2.74-3.56-4.41-6.73-14.21-13.41-28.46-19.94-42.76-3.5-7.66-6.93-15.37-9.93-23.24-5.03-13.2-9.97-26.44-14.38-39.85-1.97-5.98-5.19-9.44-11.35-10.78-14.4-3.14-28.73-6.63-43.1-9.89-6.14-1.39-12.18-.26-18.16,1.21-1.75.43-3.51,1.24-5.26,1.24-3.92,0-5.59,2.3-6.95,5.51-5,11.82-9.85,23.72-15.29,35.34-6.5,13.88-10.87,28.47-15.39,43.02-3.39,10.91-6.49,21.9-9.98,32.78-1.68,5.24-3.91,10.3-5.97,15.41-1,2.48-5.27,4.21-7.3,2.68-.86-.65-1.3-2.99-.83-4.08,7.86-18.26,13.48-37.24,18.84-56.34,2.91-10.38,6.98-20.47,10.99-30.51,4.79-12,10.05-23.81,15.14-35.7,1.22-2.85,2.66-5.61,3.8-8.49,1.99-5.04,5.72-7.82,10.81-8.61-3.45-2.9-7.15-5.48-10.18-8.68-8.37-8.84-11.55-19.76-11.57-31.7-.02-14.95,3.04-29.3,9.04-42.98.77-1.76,1.99-3.83,3.57-4.59,1.43-.69,3.86-.26,5.41.53,2.02,1.03.63,2.8-.16,4.14-5.57,9.38-7.24,19.91-8.85,30.43-1.3,8.49-1.55,17.03.86,25.39,2.49,8.67,7.31,15.86,14.88,20.87,2.53,1.67,5.65,2.46,8.48,3.68,2.17.93,4.31,1.92,6.48,2.83.91.38,1.86.67,2.83.88,5.98,1.26,11.94,2.62,17.95,3.7,15.51,2.79,30.25,2.1,42.31-9.93,2.3-2.3,5.19-3.96,6.13-7.55.89-3.4.28-6.29-1.31-9.21-2.14-3.93-1.26-5.88,2.97-7.05,1.96-.54,3.87-1.3,6.45-2.18-1.69-2.04-2.83-3.51-4.07-4.89-3-3.36-2.37-7.56,1.31-10.14,4.83-3.4,9.5-7.01,14.25-10.52,1.21-.89,1.42-1.74.35-2.97-2.18-2.49-4.14-5.18-6.44-7.54-.71-.73-2.44-1.14-3.4-.82-3.02,1.02-5.93,2.4-8.82,3.75-3.83,1.78-6.17,4-8.05,7.57-2.28,4.33-6.24,6.39-10.57,7.93-6.7,2.39-13.52,4.32-20.42.97-2.17-1.05-4.13-2.73-5.83-4.47-1.22-1.25-2.03-1.21-2.87-.01-1.78,2.54-4.81,3.95-5.57,7.53-.56,2.64-8.23,4.78-10.95,3.73-2.26-.87-2.05-2.12-.75-3.64.26-.3.71-.46.9-.79.67-1.19,1.27-2.42,1.89-3.64-1.67-.72-3.32-1.89-5.01-1.94-.71-.02-2.22,2.37-2.11,3.56.29,3.33.9,6.72,2.02,9.86,1.03,2.89,3.19,4.85,6.81,3.96.81-.2,1.89,0,2.63.39,1.27.69,2.38,1.68,3.56,2.55-1.22,1.21-2.24,2.9-3.71,3.52-4.01,1.69-13.73-1.6-16.94-7.73-2.92-5.57-3.18-11.33-1.93-17.25.71-3.37,6.11-6.04,10.21-4.88,3.12.89,6.01,2.57,9.08,3.72.81.3,2.28.31,2.76-.2,2.54-2.69,4.98-5.5,7.2-8.46.62-.82.44-2.29.49-3.47.13-2.6.13-5.2.27-7.8.13-2.37,1.59-2.81,3.58-2.19,2.69.83,4.16,2.51,4.16,5.51,0,3.81,0,7.64.46,11.41.65,5.4,2.28,6.72,7.57,5.88,4.61-.73,9.53-1.21,13-4.83,1.35-1.4,2.38-3.54,2.64-5.46.58-4.43.37-8.96.95-13.39.29-2.22,1.16-5.71,2.55-6.16,2.54-.81,3.52,2.42,4.25,4.46.92,2.57,1.23,5.36,1.82,8.08,4.33-1.78,8.71-3.45,12.94-5.43.73-.34,1.17-1.94,1.21-2.98.21-5.52.1-11.05.44-16.55.11-1.82-.46-4.68,2.62-4.92,1.95-.15,3.63,2.52,3.72,5.36.16,5.4.05,10.82.5,16.2.44,5.22,2.66,9.74,6.47,13.53,1.96,1.95,3.42,4.4,5.06,6.67,1.48,2.06,1.02,3.41-1.22,4.84-5.23,3.33-10.36,6.84-15.3,10.58-2.99,2.26-2.85,3.67-.35,6.47.73.82,1.57,1.56,2.19,2.45,2.6,3.76,2.4,4.84-1.38,7.43-.74.51-1.54.96-2.38,1.26-4.03,1.48-4.13,1.5-2.5,5.28,2.09,4.85.76,9.56-2.16,13.03-5.97,7.06-12.85,13.29-22.17,15.86-1.25.35-2.52.61-3.78.93-.08.02-.13.15-.55.66Z"/>
      <path class="cls-1" d="m101.49,430.98c-2.02.4-4.04.85-6.07,1.19-2.06.35-4.13.73-6.22.86-3.95.25-7.92.28-11.88.5-6.9.39-13.17-1.27-18.37-5.92-4.83-4.32-5.13-13.08-1.47-20.43,5.12-10.29,14.21-15.14,24.44-18.47,8.61-2.8,17.22-1.41,25.8.5,1.52.34,3.17.26,4.74.13,4.08-.34,8.16-.8,12.23-1.24,2.18-.23,4.35-.57,6.53-.76,3.48-.3,6.97-.53,10.45-.78,1.78-.13,3.59-.06,5.35-.35,6.43-1.07,10.46,2.53,13.12,8.85,2.99,7.11.75,12.36-3.72,17.21-4.08,4.42-9.17,6.64-15.47,4.97-1.36-.36-3.02.26-4.52.56-2.33.46-4.63,1.41-6.95,1.41-2,0-3.32.4-4.71,1.85-6.31,6.55-13.9,10.39-23.26,9.94Zm-25.56-3.13c-4.52-13.08,2.01-22.82,8.42-32.79-.5.02-.9-.04-1.23.08-1.22.43-2.47.84-3.63,1.42-7.23,3.59-12.98,8.73-16.02,16.35-1.74,4.36-1.41,8.76,1.99,12.34,2.9,3.05,6.68,3.12,10.47,2.61Zm23.57-34.02c-1.44.56-2.97.97-4.31,1.71-6.83,3.82-14.38,18.85-13.46,26.62.44,3.69,3.4,5.37,7.56,4.28-3.76-9.49.46-22.32,10.21-32.62Zm-4.6,25.99c.33.96.71,2.04,1.08,3.12,1.04-.45,2.24-.71,3.1-1.4,1.23-.99,2.17-2.33,3.3-3.46,4.53-4.51,5.18-10.14,4.38-16.04-.38-2.83-1.63-3.1-3.75-1.12-5.39,5.05-6.41,11.96-8.12,18.89Zm48.12-8.58c4.82-1.32,7.61-3.38,9.32-7.13,2.09-4.57.11-9.11-4.78-10.3-2.21-.54-5.34,2.05-4.35,3.78,2.46,4.3,2.47,8.51-.2,13.65Zm-34.33,11.43c3.63-.45,9.68-4.52,10.63-6.99.27-.69-.21-1.66-.31-2.5-.31-2.73-.99-5.49-.82-8.2.22-3.47-.45-4.79-4.83-5.91,3.28,8.76.76,16.35-4.68,23.59Zm22.62-15.8c.98-3.34,1.87-6.16,2.57-9.03.11-.45-.49-1.47-.94-1.59-1.23-.32-3.4-.82-3.69-.34-.93,1.57-1.87,3.67-1.53,5.31.39,1.89,2.14,3.49,3.58,5.64Z"/>
      <path class="cls-1" d="m122.93,446.53c1.76,2.09,2.86,3.4,3.97,4.72-1.38.9-2.78,2.53-4.13,2.49-1.34-.03-2.64-1.74-3.96-2.71,1.15-1.26,2.31-2.52,4.12-4.5Z"/>
    </g>
  </g>
  <g id="layor2">
    <path class="cls-1" d="m228.12,366.53c-.27-1.47.7-3.31,3.05-4.56,8.07-4.28,15.99-8.88,25.21-10.35,3.11-.5,5.63.55,7.34,3.27,4.37,6.95,8.78,13.88,13.02,20.91.43.71.18,2.39-.4,3.05-3.56,4.02-7.29,7.88-10.99,11.77-1.1,1.16-2.34,2.19-3.41,3.38-.58.63-1.22,1.4-1.36,2.19-.53,2.92-1.42,3.62-4.38,3.12-5.33-.9-10.66-1.85-16.01-2.64-1.2-.18-2.55,0-3.73.35-3.32.97-6.35-.7-6.62-4.12-.66-8.4-1.11-16.81-1.72-26.36Z"/>
    <path class="cls-1" d="m194.22,458.07c-1.06-1.68-2.29-3.07-2.07-3.37.82-1.09,2.12-1.81,3.24-2.67.51.73,1.57,1.63,1.41,2.15-.36,1.15-1.34,2.11-2.58,3.89Z"/>
  </g>
  <g id="layor3">
    <path class="cls-1" d="m279.69,316.03c-.4,2.18-.8,4.37-1.2,6.55-.41-.09-.81-.17-1.22-.26-.04-2.28-.41-4.64,1.48-6.49l.95.2Z"/>
    <path class="cls-2" d="m318.89,196.76c10.9-.94,21.31,4.29,31.91,8.81,10.12,4.32,17.65,11.8,23.73,20.64,7.6,11.05,8.99,23.43,5.88,36.28-1.02,4.22-2.65,8.39-4.63,12.26-5.38,10.53-14.95,15.64-26,17.25-10.07,1.47-20.38,1.91-30.56,1.76-7.97-.11-16.08-1.13-23.82-3-7.66-1.86-15.55-3.51-22.46-7.87-9.14-5.77-14.27-13.88-15.13-24.62-1.55-19.32,3.41-36.07,19.28-48.53,11.11-8.73,24.63-13.13,41.81-12.98Zm9.94,24c-1.76.73-3,1.11-4.11,1.72-7.01,3.82-13.86,7.96-21.04,11.44-4.53,2.2-5.57,3.17-3.53,9.1,1.16,3.37,2.19,6.8,3.62,10.06.59,1.35,1.88,2.91,3.19,3.34,6.26,2.04,12.62,3.79,18.97,5.52,2.26.62,4.03-.27,5-2.49.54-1.24.97-2.56,1.66-3.71,2.75-4.61,6.31-8.45,10.7-11.59.92-.66,1.88-2.57,1.56-3.41-1.32-3.38-2.92-6.69-4.84-9.77-1.45-2.33-3.38-4.44-5.42-6.3-1.73-1.58-3.92-2.67-5.77-3.89Z"/>
    <path class="cls-1" d="m328.83,220.76c1.85,1.22,4.04,2.31,5.77,3.89,2.04,1.86,3.96,3.97,5.42,6.3,1.92,3.07,3.52,6.39,4.84,9.77.33.84-.64,2.75-1.56,3.41-4.39,3.14-7.95,6.99-10.7,11.59-.69,1.16-1.12,2.47-1.66,3.71-.97,2.23-2.74,3.11-5,2.49-6.36-1.73-12.71-3.48-18.97-5.52-1.31-.43-2.6-1.99-3.19-3.34-1.43-3.25-2.46-6.69-3.62-10.06-2.04-5.93-1-6.9,3.53-9.1,7.17-3.48,14.03-7.62,21.04-11.44,1.11-.61,2.35-.99,4.11-1.72Z"/>
    <path class="cls-1" d="m333.45,191.34c1.21-.98,2.33-1.87,4.08-3.28v4.8c6.82,2.98,13.68,5.6,20.15,8.96,4.38,2.28,8.51,5.28,12.23,8.55,5.02,4.42,9.85,9.01,13.37,14.95,4.4,7.43,7.15,15.04,7.22,23.79.08,9.73-1.54,18.95-6.05,27.59-3.77,7.22-9.42,12.29-16.6,16.33-10.16,5.72-21.15,6.36-32.24,7.38-12.62,1.15-25.03-.87-37.48-2.17-4.67-.49-9.28-1.57-13.91-2.45-.76-.14-1.46-.64-2.17-1.01-4.49-2.33-8.99-4.64-13.45-7.01-10.67-5.66-16.59-14.44-18.58-26.43-2.34-14.05.23-27.18,6.21-39.75,4.38-9.22,11.55-16.15,20.32-21.17,13.93-7.99,29.08-11.15,45.09-10.19,3.98.24,7.94.74,11.8,1.11Zm-14.56,5.42c-17.18-.16-30.7,4.25-41.81,12.98-15.87,12.46-20.83,29.21-19.28,48.53.86,10.73,5.99,18.84,15.13,24.62,6.92,4.37,14.8,6.01,22.46,7.87,7.74,1.88,15.85,2.89,23.82,3,10.19.14,20.49-.29,30.56-1.76,11.05-1.61,20.61-6.72,26-17.25,1.98-3.87,3.6-8.04,4.63-12.26,3.11-12.85,1.72-25.23-5.88-36.28-6.08-8.84-13.61-16.32-23.73-20.64-10.59-4.52-21.01-9.75-31.91-8.81Z"/>
  </g>
  <g id="layor4">
    <path class="cls-1" d="m331.18,138.77c-3.74-4.13-7.57-8.37-11.4-12.6-4.75-5.23-8.08-11.41-9.75-18.1-1.84-7.36-3.12-14.97-3.52-22.54-.87-16.14,3.63-30.92,13.14-44.09.74-1.03,1.13-2.3,1.72-3.44.41-.8.7-1.77,1.34-2.32,7.21-6.18,14.07-12.88,21.82-18.3,12.56-8.78,26.63-14.06,41.94-16.38,18.81-2.86,36.45.69,53.77,7.73,9.52,3.87,18.89,7.97,26.93,14.46,4.04,3.26,7.72,7,11.37,10.72,6.33,6.44,9.68,14.72,13.22,22.76,7.18,16.32,8.51,33.71,6.69,51.08-1.46,13.87-8.37,25.22-20.49,33.17-9.3,6.1-19.76,8.61-30.33,10.45-10.95,1.91-22.06,3.18-33.15,3.82-13.66.78-27.26-.59-40.56-4.02-9.79-2.53-19.53-5.28-29.27-8.01-2.62-.74-4.91-1.96-7.77.1-1.14.82-3.87-.12-5.62-.87-.49-.21-.08-2.56-.08-3.61Zm158.98-43.47c.33-.03.67-.07,1-.1-1.4-9.09-2.8-18.18-4.19-27.27-.25-1.63-.85-2.39-2.78-2.25-1.48.11-3.02-.68-4.54-1.04-1.04-.24-2.27-.9-3.09-.57-2.98,1.2-5.08.02-6.92-2.08-3.15-3.61-7.89-4.18-11.84-6.24-.52-.27-1.45-.14-2.02.14-10.07,4.96-20.11,9.98-30.16,14.97-2.38,1.18-4.21,2.58-3.64,5.73.15.85-.47,1.94-.96,2.79-1.61,2.77-3.26,5.52-5.01,8.2-1.55,2.39-1.95,4.54.63,6.5,2.87,2.17,5.65,4.48,8.59,6.55,6.06,4.26,12.58,7.97,18.2,12.74,4.51,3.83,8.82,6.74,14.94,5.83.48-.07,1,.05,1.49.16,6.22,1.51,12.43,3.02,18.64,4.57,3.38.84,4.66.25,6.34-2.79,4.46-8.06,6.14-16.69,5.31-25.86Zm-46.27,50.09c-3.56-7.97-2.96-16.04-3.33-24.01-.04-.92-.92-2.04-1.73-2.63-3.7-2.75-7.6-5.23-11.27-8.02-6.76-5.13-14.44-9.13-19.76-16.06-.41-.54-1.53-.81-2.28-.76-3.39.24-6.78.51-10.13,1.03-1.59.25-3.42.7-4.57,1.71-8.83,7.72-17.48,15.64-26.28,23.38-1.69,1.49-2.24,2.96-2.13,5.19.21,4.44,1.77,8.99-.46,13.33-1.18,2.29-.32,3.26,1.96,3.76,4.99,1.11,9.94,2.37,14.93,3.5,16.23,3.69,32.61,3.78,49.05,1.91,5.15-.59,10.26-1.47,16.01-2.31Zm-127.23-78.49c-.48,2.61-1.21,5.74-1.61,8.91-1.62,12.94.63,25.31,5.58,37.28.81,1.96,1.97,2.34,3.99,2.02,8.11-1.3,16.23-2.55,24.39-3.53,3.45-.41,7.08-.56,10.46.07,2.11.39,3.26.07,4.74-1.21,6.58-5.71,13.22-11.36,19.94-16.92,1.56-1.29,1.78-2.35.81-4.08-1.86-3.32-3.38-6.83-5.34-10.08-1.02-1.69-2.44-3.37-4.08-4.41-7.45-4.71-15.15-9.02-22.53-13.83-2.32-1.51-4.13-1.81-6.58-.76-9.29,4-19.36,4.32-29.76,6.55Zm145.54-39.05c-.2-.16-.7-.62-1.25-1.03-12.3-9.09-26.32-14.36-40.96-18.14-5.58-1.44-6.08-.74-5.14,5.06.13.77.36,1.88-.04,2.31-.68.74-2.35,1.71-2.65,1.46-2.21-1.85-3.23-.16-4.39,1.21-1.36,1.6-2.63,3.29-4.03,4.86-2.67,2.97-3.32,6.29-2.78,10.26,1.04,7.74,1.74,15.54,2.32,23.33.19,2.6,1.38,3.99,3.49,5.08,2.57,1.32,5.19,2.61,7.57,4.22,1.67,1.13,2.88,1.08,4.63.15,7.79-4.13,15.66-8.11,23.52-12.1,2.65-1.34,5.35-2.58,8.34-4.01-2.33-3.19-1.58-5.56.64-8.22,3.75-4.49,7.02-9.39,10.73-14.43Zm-66.43,28.39c-.66-7.46-1.07-14.07-1.93-20.62-.25-1.92-1.42-4-2.77-5.46-5.52-5.95-11.24-11.73-16.98-17.47-.6-.6-2.01-.99-2.8-.73-8.65,2.81-16.35,7.5-23.93,12.4-1.85,1.19-1.89,2.21-.4,4.05,2.87,3.55,5.36,7.42,7.88,11.24.99,1.49,1.99,3.11,2.4,4.82.82,3.44,1.09,7.01,1.9,10.46.3,1.28,1.22,2.79,2.3,3.45,5.65,3.43,11.46,6.61,17.19,9.91,1.91,1.1,3.05.73,4.47-1.11,3.04-3.94,6.07-8.03,11.46-9.2.68-.15,1.09-1.54,1.22-1.75Z"/>
    <path class="cls-1" d="m269.03,104.14c-.23-5.53.02-10.34-3.96-14.15-1.66-1.58-.47-3.85,2.02-3.81,2.94.04,5.89.59,8.79,1.13,1.56.29,3,1.37,4.54,1.5,1.87.16,3.79-.24,5.68-.52,1.33-.2,2.71-1.02,3.94-.82,4.26.69,4.89,2.04,3.66,6.19-1.31,4.42-1.64,8.79.57,13.15,1.42,2.8-.56,5.54-3.65,4.96-1.94-.37-3.73-1.63-5.52-2.63-.94-.53-1.68-1.42-2.6-2-1.87-1.19-3.29-.84-4.44,1.21-2.03,3.62-3.12,4.14-6.55,2.85-2.76-1.04-2.97-3.44-2.55-5.99.1-.59.07-1.2.07-1.05Z"/>
    <g>
      <path class="cls-1" d="m440.41,313.86c-9.54,18.11-17.58,36.24-24.5,54.88-2.09,5.63-4.38,11.2-6.71,16.73-.69,1.63-1.85,3.07-2.77,4.61-1.55,2.62-3.85,1.62-5.47.58-.72-.46-.77-2.92-.28-4.14,4.92-12.39,9.92-24.75,15.08-37.04,3.37-8.04,7.06-15.94,10.56-23.93,2.04-4.65,4.06-9.32,5.84-14.07.3-.79-.41-2.66-1.14-3.01-3.95-1.88-8.02-3.55-12.12-5.09-3.89-1.47-7.73-2.97-10.32-6.42-1.12-1.49-2.23-3.11-2.82-4.85-2.58-7.55-.61-7.18,5.89-9.72,3.37-1.32,7.07-1.8,10.83-2.7-1.59-4.59-4.15-7.53-7.56-9.81-1.75-1.17-3.56-2.29-5.16-3.64-3.13-2.64-2.86-5.29.69-7.32,1.3-.75,2.66-1.46,4.07-1.94,5.17-1.75,7.29-6.29,8.22-10.75,1.52-7.31,1.84-14.86,2.71-22.31.14-1.24.49-2.46.81-4.05,1.84.66,3.4,1.04,4.76,1.78.62.34,1.28,1.44,1.2,2.12-.58,4.87-1.29,9.73-2.08,14.57-.22,1.36-.92,2.65-1.3,3.99-.24.84-.57,1.78-.4,2.59,1.28,6.12-1.89,12.65-7.5,15.36-1.61.78-3.15,1.72-4.95,2.72,2.76,2.55,5.59,4.76,7.89,7.42,2.19,2.54,4.02,5.46,5.57,8.45.47.92-.11,3.34-.92,3.78-2.94,1.61-6.12,2.83-9.31,3.89-2.44.81-5.03,1.16-7.73,1.75.59,3.46,1.65,6.26,4.92,7.26,7.3,2.22,14.32,5.53,22.18,5.7,1.36.03,2.92.84,3.97,1.77.62.55.42,2.03.58,3.09-.35.2-.71.4-1.06.6,2.76,1.02,5.44,2.48,8.29,2.99,15.67,2.75,30.75.51,44.47-7.46,9.34-5.42,14.87-14.3,18.11-24.64,3.04-9.71,3.83-19.61,3.74-29.7-.01-1.37,1.34-3.53,2.54-3.96,2.03-.72,5.35,1.96,5.34,3.67-.08,10.77-.69,21.54-4.09,31.81-1.74,5.25-4.39,10.32-7.37,15-1.86,2.92-1.32,4.47.66,6.72,4.77,5.42,9.46,10.92,13.92,16.6,7.15,9.12,12.45,19.37,17.56,29.73,4.62,9.35,9.51,18.57,14.1,27.93.57,1.17.65,3.24-.03,4.21-1.08,1.55-5.76,1.44-6.65.05-.64-.99-.51-2.43-1-3.55-1.83-4.12-3.65-8.26-5.7-12.27-5.2-10.17-10.28-20.42-15.86-30.38-5.2-9.28-11.28-18.02-19.1-25.4-1.66-1.56-3.05-4.36-4.82-4.59-1.77-.23-3.81,2.15-5.82,3.22-11.23,5.94-22.97,10.08-35.92,9.61-8.06-.29-16.31,1.58-24-2.45Z"/>
      <path class="cls-1" d="m509.42,222.29c2.1,1.47,3.94,2.76,5.79,4.05.02-.1.05-.21.07-.31,1.32.49,3.15.62,3.83,1.57.84,1.17,1.29,3.19.9,4.56-1.28,4.46-5.76,6.88-10.39,6.18-4.79-.73-9.62-1.24-12.62-5.9-.32-.5-1.64-.51-2.49-.49-5.88.15-11.34-.99-16.16-4.64-.8-.61-2.28-.73-3.34-.52-5.39,1.06-10.47.54-15.59-1.65-2.58-1.11-5.75-.78-8.49-1.6-6.01-1.8-11.94-3.39-18.37-3.4-3.18,0-6.52-1.77-9.5-3.3-4.95-2.54-6.02-7.04-4.77-11.17,1.7-5.63,5.91-9.86,11.52-9.84,2.36.01,5.04-.4,6.75,2.31-1.81.46-3.42.93-5.04,1.27-4.23.88-6.05,3.99-7.17,7.71-.83,2.75.23,5.55,3,6.4,3.06.93,6.36,1.09,10.15,1.68-2.18-7.53-1.71-13.89,5.14-17.15,5.6-2.67,9.13,2.13,12.97,5.88,2.76-3.77,6.56-4.49,10.67-3.08,3.95,1.36,6.56,4.14,7.06,9.19,1.12-1.35,1.87-2.18,2.54-3.07,3.74-4.95,6.74-5.93,11.21-3.62,3.58,1.85,5.06,6.87,3.62,11.65-1.02,3.35-3.08,5.79-5.91,7.72-.46.31-.84.75-1.4,1.27,3.19,2.27,6.53,3.04,10.11,2.39.75-.14,1.74-1.05,1.95-1.79.87-3.13,2.11-5.77,5.6-6.66.45-.11.99-.43,1.21-.81,1.7-2.85,3.84-3.18,6.57-1.43,2.84,1.82,1.26,4,.63,6.12-.05.18-.03.39-.04.48Zm-66.64-12.67c.89,1.2,1.54,3,2.72,3.46,1.63.64,4.12-2.11,4.08-4.17-.05-2.32-.3-4.77-2.86-5.72-1.36-.51-3.25,2.99-3.94,6.43Zm17.81,7.12c.35-.12.76-.19,1.07-.39,1.73-1.15,4.65-7.41,3.97-9.09-.25-.63-1.86-1.37-2.38-1.11-3.15,1.55-4.45,7-2.67,10.59Zm12.02-.77c-1.86,1.94-3.51,3.67-5.27,5.52,6.09.73,7.18-.39,5.27-5.52Zm8.12.69c2.88-1.51,4.04-5.19,2.47-7.86-2.01,2.31-3.14,4.7-2.47,7.86Z"/>
      <path class="cls-1" d="m489.46,268.04h-2.46c.04-.34.01-.65.1-.91.49-1.37,1.67-2.92-.5-3.79-2.07-.83-4.24-.88-5.62,1.28-2.17,3.38-4.82,3.75-7.69,1.07-2.03-1.9-4.25-3.59-6.54-5.5-.65.78-1.21,1.23-1.49,1.81-2.67,5.71-7.44,7.7-13.32,7.11-5.64-.57-11.33-1.83-15.02-6.54-1.87-2.38-3.14-5.58-3.65-8.59-.69-4.09-.57-8.36-.43-12.53.04-1.07,1.24-2.43,2.28-3.01.59-.33,2.49.43,2.79,1.13.88,2.04,1.47,4.26,1.77,6.47.5,3.65.31,7.42,1.11,10.98,1.03,4.56,5.16,6.64,11.5,6.53,3.4-.06,5.82-2.3,6.79-6.85,1.06-4.98,1.79-10.03,2.7-15.04.31-1.68.02-3.91,2.56-4.04,2.44-.12,4.86,2.32,4.7,4.76-.19,3.09-.49,6.19-1.08,9.23-.4,2.06-.11,3.47,1.78,4.53,1.04.59,1.94,1.42,2.89,2.16,1.6,1.25,3.01,1.66,4.72-.08.8-.82,2.47-1.54,3.48-1.28,4.02,1.01,8.22,1.9,11.83,3.83,4.01,2.14,4.63,6.41,2.48,10.48-4.22,7.98-11.12,12.96-18.98,16.82-.77.38-1.84.63-2.62.41-1.23-.35-2.34-1.15-3.49-1.76.72-1.06,1.21-2.56,2.21-3.09,5.37-2.85,10.25-6.28,14.15-10.98,1.04-1.25,1.8-2.73,3.02-4.61Z"/>
      <path class="cls-1" d="m448.86,245.79c-.94,1.65-1.26,2.88-2.06,3.43-.94.65-2.4,1.16-3.43.9-.78-.19-1.66-1.65-1.75-2.61-.34-3.74,1.83-7.08,5.25-8.6,3.48-1.55,7.72.66,8.96,4.72.61,2.01,1.14,4.05,1.66,6.08.54,2.09-.54,3.49-2.43,2.91-1.81-.56-3.4-2.07-4.87-3.41-.64-.58-.72-1.76-1.33-3.42Z"/>
    </g>
    <path class="cls-1" d="m374.27,158.16c-1.12.42-2.23.85-3.35,1.27-.09-.99-.18-1.98-.27-2.97,1.14.07,2.28.14,3.42.21.06.49.13.99.19,1.48Z"/>
    <path class="cls-1" d="m536.32,21.2c2.45-1.37,5.12-2.46,7.28-4.2,2.39-1.92,4.27-4.47,6.44-6.67,1.87-1.89,3.84-2.68,6.12-.4,2,1.99,2.07,3.68.31,6-3.12,4.09-2.75,6.68.86,10.41.34.36.73.75.89,1.19.5,1.43.91,2.9,1.36,4.35-1.65.38-3.46,1.36-4.93,1-3.69-.89-6.14.79-8.6,4.92-.75,1.26-.99,2.83-1.48,4.25-.53,1.55-1.16,3.51-3.17,2.75-1.56-.59-3.73-2.06-3.89-3.36-.44-3.51-.15-7.17.26-10.71.23-2-.09-2.98-2.1-3.5-.89-.23-1.96-.95-2.32-1.74-.57-1.24-1.04-2.84-.72-4.07.18-.71,2-.99,3.08-1.47.21.41.42.82.62,1.24Z"/>
  </g>
</svg>